<svg width="409" height="336" viewBox="0 0 409 336" fill="none" xmlns="http://www.w3.org/2000/svg">
<path d="M210.275 89.2617C210.275 90.0755 209.934 90.8405 209.25 91.5566C208.599 92.2728 207.736 92.9238 206.662 93.5098C205.62 94.0957 204.449 94.6165 203.146 95.0723C201.844 95.4954 200.559 95.8535 199.289 96.1465C198.02 96.472 196.815 96.7161 195.676 96.8789C194.569 97.0417 193.69 97.123 193.039 97.123C192.421 97.123 191.753 97.0579 191.037 96.9277C190.354 96.8301 189.784 96.5859 189.328 96.1953C189.068 96 188.84 95.5605 188.645 94.877C188.449 94.1934 188.254 93.3796 188.059 92.4355C187.896 91.4915 187.749 90.4824 187.619 89.4082C187.489 88.3014 187.375 87.2272 187.277 86.1855C187.212 85.1439 187.147 84.1836 187.082 83.3047C187.049 82.4258 187.033 81.7422 187.033 81.2539C187.033 80.4401 187.049 79.4635 187.082 78.3242C187.147 77.1523 187.229 75.9154 187.326 74.6133C187.424 73.2786 187.554 71.9277 187.717 70.5605C187.88 69.1934 188.059 67.9076 188.254 66.7031C188.482 65.4661 188.742 64.3594 189.035 63.3828C189.361 62.4062 189.702 61.6413 190.061 61.0879C190.679 60.209 191.46 59.7695 192.404 59.7695C193.055 59.7695 193.609 59.9974 194.064 60.4531C194.52 60.8763 194.878 61.446 195.139 62.1621C195.432 62.8457 195.643 63.627 195.773 64.5059C195.936 65.3522 196.05 66.1986 196.115 67.0449C196.18 67.8913 196.213 68.6725 196.213 69.3887C196.213 70.1048 196.213 70.6745 196.213 71.0977C196.213 73.6367 196.148 76.1595 196.018 78.666C195.92 81.14 195.871 83.6465 195.871 86.1855V88.0898C197.336 87.6341 198.931 87.2109 200.656 86.8203C202.382 86.3971 204.025 86.1855 205.588 86.1855C206.141 86.1855 206.695 86.2181 207.248 86.2832C207.834 86.3483 208.339 86.4948 208.762 86.7227C209.217 86.918 209.576 87.2272 209.836 87.6504C210.129 88.041 210.275 88.5781 210.275 89.2617ZM232.248 89.1152C232.248 89.7012 232.215 90.4661 232.15 91.4102C232.118 92.3542 231.988 93.2819 231.76 94.1934C231.532 95.0723 231.174 95.8372 230.686 96.4883C230.197 97.1393 229.514 97.4648 228.635 97.4648C227.43 97.4648 226.503 97.0742 225.852 96.293C225.201 95.5117 224.891 94.5352 224.924 93.3633C223.882 94.2747 222.694 94.9909 221.359 95.5117C220.057 96.0326 218.723 96.293 217.355 96.293C216.411 96.293 215.516 96.0651 214.67 95.6094C213.824 95.1536 213.075 94.5677 212.424 93.8516C211.773 93.1354 211.252 92.3379 210.861 91.459C210.471 90.5475 210.275 89.6523 210.275 88.7734C210.275 87.2109 210.747 85.8438 211.691 84.6719C212.668 83.5 213.856 82.5072 215.256 81.6934C216.656 80.847 218.137 80.1797 219.699 79.6914C221.294 79.2031 222.71 78.8776 223.947 78.7148C223.947 78.5521 223.947 78.4056 223.947 78.2754C223.98 78.1452 223.996 77.9987 223.996 77.8359C223.996 76.8268 223.719 76.013 223.166 75.3945C222.613 74.776 221.831 74.4668 220.822 74.4668C220.008 74.4668 219.309 74.6133 218.723 74.9062C218.137 75.1667 217.583 75.4759 217.062 75.834C216.542 76.1595 216.021 76.4688 215.5 76.7617C214.979 77.0221 214.393 77.1523 213.742 77.1523C213.026 77.1523 212.408 76.9245 211.887 76.4688C211.398 76.013 211.154 75.4271 211.154 74.7109C211.154 73.6367 211.464 72.6602 212.082 71.7812C212.733 70.9023 213.531 70.1699 214.475 69.584C215.451 68.9655 216.493 68.4935 217.6 68.168C218.739 67.8099 219.781 67.6309 220.725 67.6309C221.604 67.6309 222.482 67.7448 223.361 67.9727C224.24 68.168 225.07 68.4935 225.852 68.9492C226.633 69.3724 227.333 69.9095 227.951 70.5605C228.602 71.179 229.123 71.9115 229.514 72.7578C230.1 73.9622 230.572 75.248 230.93 76.6152C231.288 77.9499 231.564 79.3333 231.76 80.7656C231.955 82.1654 232.085 83.5814 232.15 85.0137C232.215 86.4134 232.248 87.7806 232.248 89.1152ZM224.436 87.5527L224.289 84.2324C224.224 84.2324 224.159 84.2324 224.094 84.2324C224.029 84.1999 223.964 84.1836 223.898 84.1836C223.475 84.1836 222.938 84.2975 222.287 84.5254C221.669 84.7207 221.066 85.0137 220.48 85.4043C219.895 85.7624 219.39 86.1693 218.967 86.625C218.576 87.0807 218.381 87.5527 218.381 88.041C218.381 88.4967 218.544 88.806 218.869 88.9688C219.195 89.1315 219.569 89.2129 219.992 89.2129C220.708 89.2129 221.473 89.0339 222.287 88.6758C223.101 88.2852 223.817 87.9108 224.436 87.5527Z" fill="#80E0FF"/>
<path d="M125.9 110.746C125.9 111.983 125.477 113.106 124.631 114.115C123.785 115.124 122.743 116.036 121.506 116.85C120.301 117.631 119.032 118.314 117.697 118.9C116.363 119.486 115.207 119.975 114.23 120.365C114.23 121.049 114.214 121.749 114.182 122.465C114.149 123.181 114.1 123.897 114.035 124.613C115.077 124.092 116.249 123.604 117.551 123.148C118.853 122.693 120.09 122.465 121.262 122.465C122.206 122.465 122.971 122.66 123.557 123.051C124.175 123.441 124.484 124.125 124.484 125.102C124.484 126.176 124.094 127.136 123.312 127.982C122.564 128.829 121.652 129.577 120.578 130.229C119.504 130.88 118.381 131.433 117.209 131.889C116.037 132.344 115.044 132.702 114.23 132.963C114.23 134.037 114.214 135.111 114.182 136.186C114.149 137.227 114.1 138.269 114.035 139.311C114.003 139.831 113.938 140.482 113.84 141.264C113.775 142.045 113.612 142.81 113.352 143.559C113.124 144.275 112.782 144.91 112.326 145.463C111.87 145.984 111.285 146.244 110.568 146.244C109.885 146.244 109.299 145.919 108.811 145.268C108.322 144.584 107.899 143.721 107.541 142.68C107.215 141.638 106.939 140.482 106.711 139.213C106.516 137.911 106.353 136.641 106.223 135.404C106.125 134.167 106.06 133.028 106.027 131.986C106.027 130.945 106.027 130.147 106.027 129.594C106.027 129.171 106.027 128.552 106.027 127.738C106.06 126.892 106.076 125.964 106.076 124.955C106.109 123.946 106.141 122.888 106.174 121.781C106.239 120.674 106.304 119.633 106.369 118.656C106.434 117.647 106.516 116.768 106.613 116.02C106.743 115.238 106.89 114.669 107.053 114.311C107.411 113.594 108.257 112.895 109.592 112.211C110.959 111.495 112.473 110.876 114.133 110.355C115.793 109.802 117.404 109.363 118.967 109.037C120.562 108.679 121.783 108.5 122.629 108.5C123.02 108.5 123.394 108.533 123.752 108.598C124.143 108.63 124.501 108.728 124.826 108.891C125.152 109.053 125.412 109.281 125.607 109.574C125.803 109.867 125.9 110.258 125.9 110.746ZM146.896 139.115C146.896 139.701 146.864 140.466 146.799 141.41C146.766 142.354 146.636 143.282 146.408 144.193C146.18 145.072 145.822 145.837 145.334 146.488C144.846 147.139 144.162 147.465 143.283 147.465C142.079 147.465 141.151 147.074 140.5 146.293C139.849 145.512 139.54 144.535 139.572 143.363C138.531 144.275 137.342 144.991 136.008 145.512C134.706 146.033 133.371 146.293 132.004 146.293C131.06 146.293 130.165 146.065 129.318 145.609C128.472 145.154 127.723 144.568 127.072 143.852C126.421 143.135 125.9 142.338 125.51 141.459C125.119 140.548 124.924 139.652 124.924 138.773C124.924 137.211 125.396 135.844 126.34 134.672C127.316 133.5 128.505 132.507 129.904 131.693C131.304 130.847 132.785 130.18 134.348 129.691C135.943 129.203 137.359 128.878 138.596 128.715C138.596 128.552 138.596 128.406 138.596 128.275C138.628 128.145 138.645 127.999 138.645 127.836C138.645 126.827 138.368 126.013 137.814 125.395C137.261 124.776 136.48 124.467 135.471 124.467C134.657 124.467 133.957 124.613 133.371 124.906C132.785 125.167 132.232 125.476 131.711 125.834C131.19 126.16 130.669 126.469 130.148 126.762C129.628 127.022 129.042 127.152 128.391 127.152C127.674 127.152 127.056 126.924 126.535 126.469C126.047 126.013 125.803 125.427 125.803 124.711C125.803 123.637 126.112 122.66 126.73 121.781C127.382 120.902 128.179 120.17 129.123 119.584C130.1 118.965 131.141 118.493 132.248 118.168C133.387 117.81 134.429 117.631 135.373 117.631C136.252 117.631 137.131 117.745 138.01 117.973C138.889 118.168 139.719 118.493 140.5 118.949C141.281 119.372 141.981 119.91 142.6 120.561C143.251 121.179 143.771 121.911 144.162 122.758C144.748 123.962 145.22 125.248 145.578 126.615C145.936 127.95 146.213 129.333 146.408 130.766C146.604 132.165 146.734 133.581 146.799 135.014C146.864 136.413 146.896 137.781 146.896 139.115ZM139.084 137.553L138.938 134.232C138.872 134.232 138.807 134.232 138.742 134.232C138.677 134.2 138.612 134.184 138.547 134.184C138.124 134.184 137.587 134.298 136.936 134.525C136.317 134.721 135.715 135.014 135.129 135.404C134.543 135.762 134.038 136.169 133.615 136.625C133.225 137.081 133.029 137.553 133.029 138.041C133.029 138.497 133.192 138.806 133.518 138.969C133.843 139.132 134.217 139.213 134.641 139.213C135.357 139.213 136.122 139.034 136.936 138.676C137.749 138.285 138.465 137.911 139.084 137.553ZM172.922 129.887C172.922 130.831 172.84 131.905 172.678 133.109C172.548 134.281 172.32 135.486 171.994 136.723C171.701 137.96 171.294 139.164 170.773 140.336C170.285 141.508 169.667 142.566 168.918 143.51C168.202 144.421 167.355 145.154 166.379 145.707C165.435 146.26 164.328 146.537 163.059 146.537C161.724 146.537 160.503 146.228 159.396 145.609C158.322 144.991 157.395 144.145 156.613 143.07C156.516 143.949 156.158 144.73 155.539 145.414C154.921 146.065 154.139 146.391 153.195 146.391C152.642 146.391 152.17 146.114 151.779 145.561C151.421 145.007 151.128 144.307 150.9 143.461C150.673 142.582 150.493 141.622 150.363 140.58C150.266 139.538 150.201 138.529 150.168 137.553C150.135 136.576 150.119 135.697 150.119 134.916C150.119 134.135 150.119 133.581 150.119 133.256C150.119 132.149 150.119 131.042 150.119 129.936C150.152 128.829 150.184 127.706 150.217 126.566C150.217 126.013 150.201 125.183 150.168 124.076C150.168 122.969 150.184 121.749 150.217 120.414C150.249 119.047 150.314 117.663 150.412 116.264C150.542 114.831 150.754 113.529 151.047 112.357C151.34 111.186 151.747 110.225 152.268 109.477C152.788 108.728 153.456 108.337 154.27 108.305C154.921 108.305 155.474 108.533 155.93 108.988C156.385 109.444 156.76 110.046 157.053 110.795C157.378 111.544 157.622 112.39 157.785 113.334C157.98 114.245 158.111 115.173 158.176 116.117C158.273 117.029 158.322 117.908 158.322 118.754C158.355 119.568 158.371 120.235 158.371 120.756C158.371 120.854 158.355 121.081 158.322 121.439C158.322 121.765 158.322 122.123 158.322 122.514C158.322 122.904 158.322 123.262 158.322 123.588C158.322 123.881 158.322 124.044 158.322 124.076C158.615 123.458 159.038 122.855 159.592 122.27C160.145 121.684 160.764 121.163 161.447 120.707C162.131 120.251 162.847 119.877 163.596 119.584C164.344 119.291 165.061 119.145 165.744 119.145C167.111 119.145 168.251 119.503 169.162 120.219C170.106 120.902 170.855 121.781 171.408 122.855C171.962 123.93 172.352 125.102 172.58 126.371C172.808 127.608 172.922 128.78 172.922 129.887ZM165.744 131.352C165.744 130.961 165.712 130.538 165.646 130.082C165.614 129.626 165.5 129.203 165.305 128.812C165.142 128.422 164.898 128.096 164.572 127.836C164.279 127.576 163.889 127.445 163.4 127.445C162.88 127.445 162.359 127.559 161.838 127.787C161.35 128.015 160.878 128.308 160.422 128.666C159.966 129.024 159.543 129.415 159.152 129.838C158.762 130.229 158.42 130.619 158.127 131.01L157.639 135.355C158.16 136.104 158.794 136.706 159.543 137.162C160.292 137.585 161.138 137.797 162.082 137.797C162.798 137.797 163.384 137.569 163.84 137.113C164.328 136.658 164.702 136.104 164.963 135.453C165.256 134.77 165.451 134.053 165.549 133.305C165.679 132.556 165.744 131.905 165.744 131.352ZM192.844 127.738C192.388 127.771 191.997 127.738 191.672 127.641C191.346 127.51 191.021 127.38 190.695 127.25C190.402 127.12 190.109 127.006 189.816 126.908C189.523 126.778 189.198 126.729 188.84 126.762C188.189 126.794 187.603 126.973 187.082 127.299C186.594 127.624 186.138 128.031 185.715 128.52C185.324 129.008 184.982 129.561 184.689 130.18C184.396 130.766 184.169 131.352 184.006 131.938C183.908 132.328 183.827 132.93 183.762 133.744C183.729 134.525 183.713 135.372 183.713 136.283C183.68 137.227 183.664 138.122 183.664 138.969C183.664 139.815 183.632 140.482 183.566 140.971C183.534 141.492 183.452 142.11 183.322 142.826C183.192 143.51 182.98 144.161 182.688 144.779C182.427 145.398 182.069 145.919 181.613 146.342C181.158 146.765 180.572 146.977 179.855 146.977C179.302 146.977 178.814 146.814 178.391 146.488C178 146.163 177.658 145.74 177.365 145.219C177.105 144.665 176.877 144.031 176.682 143.314C176.519 142.598 176.389 141.866 176.291 141.117C176.193 140.336 176.112 139.555 176.047 138.773C176.014 137.992 175.982 137.26 175.949 136.576C175.949 135.86 175.949 135.209 175.949 134.623C175.982 134.037 175.998 133.565 175.998 133.207C175.965 132.068 175.9 130.928 175.803 129.789C175.738 128.617 175.705 127.462 175.705 126.322C175.705 125.606 175.738 124.809 175.803 123.93C175.868 123.051 176.047 122.237 176.34 121.488C176.633 120.707 177.056 120.056 177.609 119.535C178.195 119.014 178.993 118.754 180.002 118.754C180.555 118.754 181.027 118.933 181.418 119.291C181.809 119.649 182.118 120.089 182.346 120.609C182.606 121.13 182.801 121.684 182.932 122.27C183.062 122.855 183.143 123.393 183.176 123.881C183.957 122.611 184.836 121.586 185.812 120.805C186.789 119.991 188.059 119.551 189.621 119.486C190.402 119.454 191.167 119.535 191.916 119.73C192.697 119.893 193.397 120.186 194.016 120.609C194.667 121 195.188 121.521 195.578 122.172C196.001 122.823 196.229 123.588 196.262 124.467C196.327 125.508 196.018 126.306 195.334 126.859C194.65 127.413 193.82 127.706 192.844 127.738ZM205.051 111.918C205.051 112.374 204.921 112.781 204.66 113.139C204.432 113.497 204.123 113.822 203.732 114.115C203.342 114.376 202.919 114.587 202.463 114.75C202.007 114.88 201.584 114.945 201.193 114.945C200.542 114.945 199.973 114.783 199.484 114.457C198.996 114.132 198.752 113.627 198.752 112.943C198.752 112.455 198.866 112.032 199.094 111.674C199.354 111.283 199.663 110.974 200.021 110.746C200.38 110.486 200.786 110.29 201.242 110.16C201.698 110.03 202.137 109.965 202.561 109.965C203.179 109.965 203.749 110.111 204.27 110.404C204.79 110.697 205.051 111.202 205.051 111.918ZM205.441 128.52C205.441 128.975 205.441 129.464 205.441 129.984C205.441 130.473 205.425 130.945 205.393 131.4C205.36 131.954 205.344 132.702 205.344 133.646C205.344 134.558 205.311 135.551 205.246 136.625C205.181 137.699 205.067 138.79 204.904 139.896C204.774 141.003 204.546 142.012 204.221 142.924C203.895 143.835 203.456 144.584 202.902 145.17C202.382 145.723 201.714 146.016 200.9 146.049C200.282 146.081 199.761 145.837 199.338 145.316C198.915 144.796 198.557 144.128 198.264 143.314C198.003 142.468 197.808 141.54 197.678 140.531C197.548 139.49 197.45 138.497 197.385 137.553C197.32 136.576 197.287 135.681 197.287 134.867C197.287 134.053 197.287 133.451 197.287 133.061C197.287 132.54 197.287 131.807 197.287 130.863C197.287 129.887 197.32 128.845 197.385 127.738C197.45 126.632 197.564 125.508 197.727 124.369C197.922 123.23 198.182 122.188 198.508 121.244C198.866 120.3 199.322 119.535 199.875 118.949C200.428 118.363 201.128 118.07 201.975 118.07C202.854 118.07 203.521 118.51 203.977 119.389C204.432 120.268 204.774 121.293 205.002 122.465C205.23 123.637 205.36 124.809 205.393 125.98C205.425 127.12 205.441 127.966 205.441 128.52ZM231.613 123.295C231.353 125.671 231.092 128.031 230.832 130.375C230.572 132.719 230.393 135.062 230.295 137.406C230.132 140.108 230.067 142.663 230.1 145.072C230.132 147.481 230.148 150.036 230.148 152.738C230.148 153.389 230.132 154.187 230.1 155.131C230.1 156.075 229.986 156.986 229.758 157.865C229.53 158.744 229.156 159.493 228.635 160.111C228.146 160.73 227.398 161.039 226.389 161.039C225.9 161.039 225.477 160.893 225.119 160.6C224.794 160.307 224.501 159.916 224.24 159.428C224.012 158.972 223.817 158.451 223.654 157.865C223.524 157.279 223.41 156.677 223.312 156.059C223.15 154.789 223.052 153.52 223.02 152.25C223.02 151.013 223.02 150.102 223.02 149.516V145.707V142.973C222.271 143.949 221.294 144.698 220.09 145.219C218.918 145.707 217.746 145.951 216.574 145.951C215.109 145.951 213.84 145.609 212.766 144.926C211.724 144.21 210.861 143.314 210.178 142.24C209.494 141.133 208.99 139.929 208.664 138.627C208.339 137.325 208.176 136.055 208.176 134.818V134.525C208.176 132.833 208.436 131.01 208.957 129.057C209.478 127.071 210.243 125.232 211.252 123.539C212.294 121.846 213.579 120.447 215.109 119.34C216.672 118.201 218.479 117.631 220.529 117.631C221.636 117.631 222.645 117.859 223.557 118.314C224.501 118.77 225.168 119.519 225.559 120.561C225.819 119.812 226.21 119.21 226.73 118.754C227.284 118.266 227.984 118.021 228.83 118.021C229.904 118.021 230.653 118.38 231.076 119.096C231.532 119.779 231.76 120.544 231.76 121.391C231.76 121.749 231.743 122.074 231.711 122.367C231.678 122.66 231.646 122.969 231.613 123.295ZM220.383 124.467C219.634 124.467 218.934 124.776 218.283 125.395C217.632 125.98 217.062 126.713 216.574 127.592C216.086 128.438 215.695 129.35 215.402 130.326C215.142 131.303 215.012 132.165 215.012 132.914C215.012 133.37 215.044 133.858 215.109 134.379C215.207 134.9 215.337 135.404 215.5 135.893C215.695 136.348 215.939 136.739 216.232 137.064C216.558 137.357 216.965 137.504 217.453 137.504C217.876 137.504 218.365 137.406 218.918 137.211C219.504 136.983 220.074 136.706 220.627 136.381C221.18 136.023 221.669 135.632 222.092 135.209C222.515 134.786 222.808 134.379 222.971 133.988C223.068 133.76 223.15 133.419 223.215 132.963C223.28 132.507 223.329 132.035 223.361 131.547C223.426 131.026 223.475 130.521 223.508 130.033C223.54 129.545 223.557 129.171 223.557 128.91C223.557 128.52 223.459 128.08 223.264 127.592C223.101 127.071 222.873 126.583 222.58 126.127C222.287 125.639 221.945 125.248 221.555 124.955C221.164 124.63 220.773 124.467 220.383 124.467ZM255.344 132.035C255.344 133.826 255.165 135.6 254.807 137.357C254.449 139.115 253.846 140.694 253 142.094C252.154 143.461 251.014 144.568 249.582 145.414C248.182 146.26 246.424 146.684 244.309 146.684C242.225 146.684 240.484 146.277 239.084 145.463C237.684 144.617 236.561 143.51 235.715 142.143C234.901 140.775 234.315 139.229 233.957 137.504C233.632 135.779 233.469 134.021 233.469 132.23C233.469 130.277 233.697 128.34 234.152 126.42C234.25 125.899 234.429 125.183 234.689 124.271C234.982 123.327 235.34 122.416 235.764 121.537C236.219 120.626 236.724 119.844 237.277 119.193C237.863 118.542 238.498 118.217 239.182 118.217C239.833 118.217 240.354 118.396 240.744 118.754C241.135 119.112 241.444 119.568 241.672 120.121C241.9 120.642 242.046 121.212 242.111 121.83C242.176 122.416 242.209 122.953 242.209 123.441C242.209 124.19 242.144 124.923 242.014 125.639C241.916 126.355 241.802 127.071 241.672 127.787C241.542 128.764 241.411 129.74 241.281 130.717C241.184 131.693 241.135 132.67 241.135 133.646C241.135 134.135 241.151 134.688 241.184 135.307C241.249 135.893 241.379 136.462 241.574 137.016C241.77 137.569 242.046 138.041 242.404 138.432C242.762 138.79 243.267 138.969 243.918 138.969C244.764 138.969 245.432 138.741 245.92 138.285C246.441 137.829 246.815 137.26 247.043 136.576C247.303 135.893 247.466 135.16 247.531 134.379C247.596 133.598 247.629 132.882 247.629 132.23C247.629 130.798 247.531 129.398 247.336 128.031C247.141 126.632 246.962 125.215 246.799 123.783C246.766 123.62 246.75 123.393 246.75 123.1C246.75 122.611 246.831 122.123 246.994 121.635C247.157 121.146 247.385 120.707 247.678 120.316C247.971 119.926 248.329 119.617 248.752 119.389C249.175 119.128 249.647 118.998 250.168 118.998C250.884 118.998 251.519 119.258 252.072 119.779C252.626 120.268 253.081 120.919 253.439 121.732C253.83 122.514 254.139 123.409 254.367 124.418C254.628 125.395 254.823 126.371 254.953 127.348C255.116 128.292 255.214 129.187 255.246 130.033C255.311 130.88 255.344 131.547 255.344 132.035ZM278.781 137.309C278.781 138.415 278.423 139.506 277.707 140.58C277.023 141.622 276.145 142.566 275.07 143.412C274.029 144.226 272.906 144.893 271.701 145.414C270.497 145.902 269.39 146.146 268.381 146.146C266.656 146.146 265.109 145.723 263.742 144.877C262.408 143.998 261.285 142.891 260.373 141.557C259.462 140.222 258.762 138.757 258.273 137.162C257.818 135.535 257.59 133.956 257.59 132.426C257.59 130.798 257.818 129.057 258.273 127.201C258.729 125.346 259.413 123.637 260.324 122.074C261.268 120.512 262.44 119.21 263.84 118.168C265.272 117.126 266.965 116.605 268.918 116.605C270.025 116.605 271.083 116.801 272.092 117.191C273.101 117.549 273.98 118.07 274.729 118.754C275.477 119.438 276.079 120.251 276.535 121.195C276.991 122.139 277.219 123.197 277.219 124.369C277.219 125.899 276.893 127.331 276.242 128.666C275.591 130.001 274.729 131.156 273.654 132.133C272.58 133.109 271.343 133.907 269.943 134.525C268.544 135.111 267.111 135.437 265.646 135.502C265.777 136.446 266.151 137.13 266.77 137.553C267.421 137.976 268.186 138.188 269.064 138.188C269.715 138.188 270.35 138.025 270.969 137.699C271.587 137.374 272.189 137.016 272.775 136.625C273.361 136.202 273.931 135.827 274.484 135.502C275.07 135.176 275.656 135.014 276.242 135.014C276.893 135.014 277.479 135.225 278 135.648C278.521 136.072 278.781 136.625 278.781 137.309ZM270.871 125.346C270.871 124.923 270.757 124.483 270.529 124.027C270.301 123.572 269.943 123.344 269.455 123.344C268.739 123.344 268.137 123.539 267.648 123.93C267.16 124.288 266.753 124.76 266.428 125.346C266.102 125.899 265.842 126.501 265.646 127.152C265.484 127.803 265.386 128.406 265.354 128.959C265.809 128.861 266.346 128.731 266.965 128.568C267.616 128.406 268.218 128.194 268.771 127.934C269.357 127.641 269.846 127.283 270.236 126.859C270.66 126.436 270.871 125.932 270.871 125.346Z" fill="#8BFF96"/>
<path d="M313.254 139.115C313.254 139.701 313.221 140.466 313.156 141.41C313.124 142.354 312.993 143.282 312.766 144.193C312.538 145.072 312.18 145.837 311.691 146.488C311.203 147.139 310.52 147.465 309.641 147.465C308.436 147.465 307.508 147.074 306.857 146.293C306.206 145.512 305.897 144.535 305.93 143.363C304.888 144.275 303.7 144.991 302.365 145.512C301.063 146.033 299.729 146.293 298.361 146.293C297.417 146.293 296.522 146.065 295.676 145.609C294.829 145.154 294.081 144.568 293.43 143.852C292.779 143.135 292.258 142.338 291.867 141.459C291.477 140.548 291.281 139.652 291.281 138.773C291.281 137.211 291.753 135.844 292.697 134.672C293.674 133.5 294.862 132.507 296.262 131.693C297.661 130.847 299.143 130.18 300.705 129.691C302.3 129.203 303.716 128.878 304.953 128.715C304.953 128.552 304.953 128.406 304.953 128.275C304.986 128.145 305.002 127.999 305.002 127.836C305.002 126.827 304.725 126.013 304.172 125.395C303.618 124.776 302.837 124.467 301.828 124.467C301.014 124.467 300.314 124.613 299.729 124.906C299.143 125.167 298.589 125.476 298.068 125.834C297.548 126.16 297.027 126.469 296.506 126.762C295.985 127.022 295.399 127.152 294.748 127.152C294.032 127.152 293.413 126.924 292.893 126.469C292.404 126.013 292.16 125.427 292.16 124.711C292.16 123.637 292.469 122.66 293.088 121.781C293.739 120.902 294.536 120.17 295.48 119.584C296.457 118.965 297.499 118.493 298.605 118.168C299.745 117.81 300.786 117.631 301.73 117.631C302.609 117.631 303.488 117.745 304.367 117.973C305.246 118.168 306.076 118.493 306.857 118.949C307.639 119.372 308.339 119.91 308.957 120.561C309.608 121.179 310.129 121.911 310.52 122.758C311.105 123.962 311.577 125.248 311.936 126.615C312.294 127.95 312.57 129.333 312.766 130.766C312.961 132.165 313.091 133.581 313.156 135.014C313.221 136.413 313.254 137.781 313.254 139.115ZM305.441 137.553L305.295 134.232C305.23 134.232 305.165 134.232 305.1 134.232C305.035 134.2 304.969 134.184 304.904 134.184C304.481 134.184 303.944 134.298 303.293 134.525C302.674 134.721 302.072 135.014 301.486 135.404C300.9 135.762 300.396 136.169 299.973 136.625C299.582 137.081 299.387 137.553 299.387 138.041C299.387 138.497 299.549 138.806 299.875 138.969C300.201 139.132 300.575 139.213 300.998 139.213C301.714 139.213 302.479 139.034 303.293 138.676C304.107 138.285 304.823 137.911 305.441 137.553ZM306.564 113.48C306.564 113.741 306.451 113.952 306.223 114.115C306.027 114.245 305.799 114.311 305.539 114.311C304.953 114.311 304.335 114.132 303.684 113.773C303.065 113.383 302.528 113.057 302.072 112.797C301.779 112.602 301.454 112.39 301.096 112.162C300.77 111.934 300.445 111.674 300.119 111.381C299.826 111.088 299.566 110.779 299.338 110.453C299.143 110.095 299.045 109.737 299.045 109.379C299.045 108.891 299.224 108.467 299.582 108.109C299.94 107.719 300.363 107.523 300.852 107.523C301.34 107.523 301.91 107.751 302.561 108.207C303.212 108.63 303.83 109.151 304.416 109.77C305.035 110.388 305.539 111.039 305.93 111.723C306.353 112.406 306.564 112.992 306.564 113.48Z" fill="#E498FF"/>
<path d="M176.389 161.918C176.389 162.374 176.258 162.781 175.998 163.139C175.77 163.497 175.461 163.822 175.07 164.115C174.68 164.376 174.257 164.587 173.801 164.75C173.345 164.88 172.922 164.945 172.531 164.945C171.88 164.945 171.311 164.783 170.822 164.457C170.334 164.132 170.09 163.627 170.09 162.943C170.09 162.455 170.204 162.032 170.432 161.674C170.692 161.283 171.001 160.974 171.359 160.746C171.717 160.486 172.124 160.29 172.58 160.16C173.036 160.03 173.475 159.965 173.898 159.965C174.517 159.965 175.087 160.111 175.607 160.404C176.128 160.697 176.389 161.202 176.389 161.918ZM176.779 178.52C176.779 178.975 176.779 179.464 176.779 179.984C176.779 180.473 176.763 180.945 176.73 181.4C176.698 181.954 176.682 182.702 176.682 183.646C176.682 184.558 176.649 185.551 176.584 186.625C176.519 187.699 176.405 188.79 176.242 189.896C176.112 191.003 175.884 192.012 175.559 192.924C175.233 193.835 174.794 194.584 174.24 195.17C173.719 195.723 173.052 196.016 172.238 196.049C171.62 196.081 171.099 195.837 170.676 195.316C170.253 194.796 169.895 194.128 169.602 193.314C169.341 192.468 169.146 191.54 169.016 190.531C168.885 189.49 168.788 188.497 168.723 187.553C168.658 186.576 168.625 185.681 168.625 184.867C168.625 184.053 168.625 183.451 168.625 183.061C168.625 182.54 168.625 181.807 168.625 180.863C168.625 179.887 168.658 178.845 168.723 177.738C168.788 176.632 168.902 175.508 169.064 174.369C169.26 173.23 169.52 172.188 169.846 171.244C170.204 170.3 170.66 169.535 171.213 168.949C171.766 168.363 172.466 168.07 173.312 168.07C174.191 168.07 174.859 168.51 175.314 169.389C175.77 170.268 176.112 171.293 176.34 172.465C176.568 173.637 176.698 174.809 176.73 175.98C176.763 177.12 176.779 177.966 176.779 178.52ZM201.291 163.871C201.291 166.247 201.193 168.607 200.998 170.951C200.835 173.295 200.754 175.655 200.754 178.031C200.754 179.952 200.803 181.856 200.9 183.744C201.031 185.632 201.096 187.536 201.096 189.457C201.096 189.978 201.079 190.613 201.047 191.361C201.014 192.077 200.9 192.777 200.705 193.461C200.542 194.145 200.249 194.73 199.826 195.219C199.436 195.707 198.866 195.951 198.117 195.951C197.141 195.951 196.327 195.593 195.676 194.877C195.057 194.128 194.667 193.298 194.504 192.387C193.885 193.559 192.99 194.551 191.818 195.365C190.646 196.179 189.377 196.586 188.01 196.586C186.545 196.586 185.275 196.081 184.201 195.072C183.16 194.063 182.281 192.842 181.564 191.41C180.881 189.978 180.36 188.48 180.002 186.918C179.676 185.355 179.514 184.005 179.514 182.865C179.514 182.051 179.562 181.124 179.66 180.082C179.758 179.04 179.921 177.982 180.148 176.908C180.409 175.834 180.734 174.792 181.125 173.783C181.516 172.742 182.004 171.814 182.59 171C183.208 170.186 183.924 169.535 184.738 169.047C185.585 168.559 186.545 168.314 187.619 168.314C188.791 168.314 189.914 168.656 190.988 169.34C192.062 170.023 192.876 170.87 193.43 171.879L193.869 164.115C193.902 163.497 193.951 162.781 194.016 161.967C194.081 161.12 194.211 160.323 194.406 159.574C194.634 158.826 194.976 158.191 195.432 157.67C195.887 157.149 196.555 156.889 197.434 156.889C198.378 156.889 199.11 157.117 199.631 157.572C200.152 158.028 200.526 158.614 200.754 159.33C201.014 160.014 201.161 160.762 201.193 161.576C201.258 162.39 201.291 163.155 201.291 163.871ZM193.332 185.551C193.332 184.802 193.316 184.07 193.283 183.354C193.251 182.637 193.251 181.905 193.283 181.156C193.088 180.733 192.86 180.277 192.6 179.789C192.339 179.268 192.014 178.796 191.623 178.373C191.265 177.917 190.858 177.543 190.402 177.25C189.947 176.957 189.458 176.811 188.938 176.811C188.352 176.811 187.88 176.99 187.521 177.348C187.163 177.706 186.903 178.145 186.74 178.666C186.577 179.154 186.464 179.691 186.398 180.277C186.366 180.863 186.35 181.368 186.35 181.791C186.35 182.182 186.382 182.768 186.447 183.549C186.512 184.298 186.626 185.062 186.789 185.844C186.984 186.625 187.245 187.309 187.57 187.895C187.896 188.48 188.335 188.773 188.889 188.773C189.312 188.773 189.735 188.692 190.158 188.529C190.581 188.334 190.972 188.106 191.33 187.846C191.721 187.553 192.079 187.243 192.404 186.918C192.762 186.56 193.072 186.234 193.332 185.941V185.551ZM224.973 187.309C224.973 188.415 224.615 189.506 223.898 190.58C223.215 191.622 222.336 192.566 221.262 193.412C220.22 194.226 219.097 194.893 217.893 195.414C216.688 195.902 215.581 196.146 214.572 196.146C212.847 196.146 211.301 195.723 209.934 194.877C208.599 193.998 207.476 192.891 206.564 191.557C205.653 190.222 204.953 188.757 204.465 187.162C204.009 185.535 203.781 183.956 203.781 182.426C203.781 180.798 204.009 179.057 204.465 177.201C204.921 175.346 205.604 173.637 206.516 172.074C207.46 170.512 208.632 169.21 210.031 168.168C211.464 167.126 213.156 166.605 215.109 166.605C216.216 166.605 217.274 166.801 218.283 167.191C219.292 167.549 220.171 168.07 220.92 168.754C221.669 169.438 222.271 170.251 222.727 171.195C223.182 172.139 223.41 173.197 223.41 174.369C223.41 175.899 223.085 177.331 222.434 178.666C221.783 180.001 220.92 181.156 219.846 182.133C218.771 183.109 217.535 183.907 216.135 184.525C214.735 185.111 213.303 185.437 211.838 185.502C211.968 186.446 212.342 187.13 212.961 187.553C213.612 187.976 214.377 188.188 215.256 188.188C215.907 188.188 216.542 188.025 217.16 187.699C217.779 187.374 218.381 187.016 218.967 186.625C219.553 186.202 220.122 185.827 220.676 185.502C221.262 185.176 221.848 185.014 222.434 185.014C223.085 185.014 223.671 185.225 224.191 185.648C224.712 186.072 224.973 186.625 224.973 187.309ZM217.062 175.346C217.062 174.923 216.949 174.483 216.721 174.027C216.493 173.572 216.135 173.344 215.646 173.344C214.93 173.344 214.328 173.539 213.84 173.93C213.352 174.288 212.945 174.76 212.619 175.346C212.294 175.899 212.033 176.501 211.838 177.152C211.675 177.803 211.577 178.406 211.545 178.959C212.001 178.861 212.538 178.731 213.156 178.568C213.807 178.406 214.41 178.194 214.963 177.934C215.549 177.641 216.037 177.283 216.428 176.859C216.851 176.436 217.062 175.932 217.062 175.346ZM219.797 158.012C219.797 158.37 219.699 158.728 219.504 159.086C219.309 159.411 219.064 159.721 218.771 160.014C218.511 160.307 218.218 160.583 217.893 160.844C217.567 161.072 217.274 161.283 217.014 161.479C216.786 161.641 216.525 161.837 216.232 162.064C215.972 162.26 215.679 162.455 215.354 162.65C215.061 162.813 214.751 162.96 214.426 163.09C214.133 163.22 213.84 163.285 213.547 163.285C213.286 163.285 213.059 163.22 212.863 163.09C212.668 162.927 212.57 162.699 212.57 162.406C212.57 161.918 212.749 161.332 213.107 160.648C213.498 159.932 213.97 159.249 214.523 158.598C215.077 157.914 215.663 157.344 216.281 156.889C216.9 156.4 217.469 156.156 217.99 156.156C218.446 156.156 218.853 156.352 219.211 156.742C219.602 157.1 219.797 157.523 219.797 158.012ZM247.385 187.309C247.385 188.415 247.027 189.506 246.311 190.58C245.627 191.622 244.748 192.566 243.674 193.412C242.632 194.226 241.509 194.893 240.305 195.414C239.1 195.902 237.993 196.146 236.984 196.146C235.259 196.146 233.713 195.723 232.346 194.877C231.011 193.998 229.888 192.891 228.977 191.557C228.065 190.222 227.365 188.757 226.877 187.162C226.421 185.535 226.193 183.956 226.193 182.426C226.193 180.798 226.421 179.057 226.877 177.201C227.333 175.346 228.016 173.637 228.928 172.074C229.872 170.512 231.044 169.21 232.443 168.168C233.876 167.126 235.568 166.605 237.521 166.605C238.628 166.605 239.686 166.801 240.695 167.191C241.704 167.549 242.583 168.07 243.332 168.754C244.081 169.438 244.683 170.251 245.139 171.195C245.594 172.139 245.822 173.197 245.822 174.369C245.822 175.899 245.497 177.331 244.846 178.666C244.195 180.001 243.332 181.156 242.258 182.133C241.184 183.109 239.947 183.907 238.547 184.525C237.147 185.111 235.715 185.437 234.25 185.502C234.38 186.446 234.755 187.13 235.373 187.553C236.024 187.976 236.789 188.188 237.668 188.188C238.319 188.188 238.954 188.025 239.572 187.699C240.191 187.374 240.793 187.016 241.379 186.625C241.965 186.202 242.535 185.827 243.088 185.502C243.674 185.176 244.26 185.014 244.846 185.014C245.497 185.014 246.083 185.225 246.604 185.648C247.124 186.072 247.385 186.625 247.385 187.309ZM239.475 175.346C239.475 174.923 239.361 174.483 239.133 174.027C238.905 173.572 238.547 173.344 238.059 173.344C237.342 173.344 236.74 173.539 236.252 173.93C235.764 174.288 235.357 174.76 235.031 175.346C234.706 175.899 234.445 176.501 234.25 177.152C234.087 177.803 233.99 178.406 233.957 178.959C234.413 178.861 234.95 178.731 235.568 178.568C236.219 178.406 236.822 178.194 237.375 177.934C237.961 177.641 238.449 177.283 238.84 176.859C239.263 176.436 239.475 175.932 239.475 175.346ZM263.645 169.145C263.645 170.089 263.319 170.788 262.668 171.244C262.049 171.7 261.35 172.139 260.568 172.562C259.787 172.953 259.071 173.425 258.42 173.979C257.801 174.532 257.492 175.362 257.492 176.469C257.492 177.055 257.622 177.559 257.883 177.982C258.176 178.406 258.518 178.796 258.908 179.154C259.331 179.48 259.787 179.822 260.275 180.18C260.764 180.538 261.203 180.945 261.594 181.4C262.017 181.856 262.359 182.41 262.619 183.061C262.912 183.712 263.059 184.509 263.059 185.453C263.059 186.82 262.701 188.171 261.984 189.506C261.301 190.808 260.406 191.98 259.299 193.021C258.225 194.031 257.004 194.844 255.637 195.463C254.27 196.081 252.919 196.391 251.584 196.391C251.031 196.391 250.477 196.342 249.924 196.244C249.37 196.179 248.866 196.033 248.41 195.805C247.987 195.577 247.629 195.268 247.336 194.877C247.043 194.454 246.896 193.917 246.896 193.266C246.896 192.354 247.076 191.654 247.434 191.166C247.792 190.645 248.247 190.238 248.801 189.945C249.354 189.652 249.94 189.424 250.559 189.262C251.21 189.099 251.812 188.904 252.365 188.676C252.919 188.415 253.374 188.09 253.732 187.699C254.09 187.309 254.27 186.755 254.27 186.039C254.27 185.355 253.993 184.656 253.439 183.939C252.919 183.191 252.333 182.41 251.682 181.596C251.031 180.749 250.428 179.854 249.875 178.91C249.354 177.966 249.094 176.924 249.094 175.785C249.094 174.385 249.37 173.1 249.924 171.928C250.51 170.723 251.275 169.682 252.219 168.803C253.195 167.924 254.302 167.24 255.539 166.752C256.776 166.231 258.078 165.971 259.445 165.971C259.966 165.971 260.471 166.02 260.959 166.117C261.48 166.215 261.936 166.394 262.326 166.654C262.717 166.882 263.026 167.208 263.254 167.631C263.514 168.021 263.645 168.526 263.645 169.145Z" fill="#FFDA7A"/>
<path d="M142.475 212.17C141.893 212.17 141.369 212.086 140.904 211.918C140.443 211.746 140.051 211.49 139.727 211.15C139.402 210.807 139.154 210.377 138.982 209.861C138.811 209.346 138.725 208.742 138.725 208.051V203.715H141.35V208.062C141.35 208.449 141.369 208.793 141.408 209.094C141.447 209.395 141.514 209.65 141.607 209.861C141.701 210.068 141.826 210.227 141.982 210.336C142.139 210.445 142.334 210.5 142.568 210.5C142.826 210.5 143.033 210.445 143.189 210.336C143.35 210.227 143.473 210.068 143.559 209.861C143.648 209.65 143.709 209.395 143.74 209.094C143.771 208.793 143.787 208.449 143.787 208.062V203.715H145.979V208.051C145.979 208.746 145.91 209.352 145.773 209.867C145.637 210.383 145.424 210.812 145.135 211.156C144.85 211.496 144.486 211.75 144.045 211.918C143.607 212.086 143.084 212.17 142.475 212.17ZM147.9 205.678H150.432C150.408 205.811 150.385 205.982 150.361 206.193C150.338 206.4 150.326 206.615 150.326 206.838C150.459 206.639 150.625 206.459 150.824 206.299C151.027 206.135 151.25 205.996 151.492 205.883C151.734 205.766 151.99 205.676 152.26 205.613C152.533 205.551 152.809 205.52 153.086 205.52C153.391 205.52 153.68 205.566 153.953 205.66C154.227 205.75 154.467 205.895 154.674 206.094C154.881 206.293 155.045 206.553 155.166 206.873C155.287 207.189 155.348 207.574 155.348 208.027V212H152.816V208.396C152.816 208.154 152.791 207.953 152.74 207.793C152.689 207.633 152.619 207.506 152.529 207.412C152.439 207.318 152.332 207.252 152.207 207.213C152.086 207.174 151.953 207.154 151.809 207.154C151.652 207.154 151.498 207.182 151.346 207.236C151.193 207.287 151.055 207.357 150.93 207.447C150.805 207.537 150.697 207.643 150.607 207.764C150.518 207.885 150.459 208.014 150.432 208.15V212H147.9V205.678ZM161.283 205.678H163.844C163.809 205.791 163.779 205.896 163.756 205.994C163.732 206.088 163.715 206.182 163.703 206.275C163.691 206.369 163.682 206.465 163.674 206.562C163.67 206.656 163.668 206.758 163.668 206.867C163.773 206.691 163.91 206.521 164.078 206.357C164.246 206.193 164.434 206.051 164.641 205.93C164.852 205.805 165.074 205.705 165.309 205.631C165.547 205.557 165.787 205.52 166.029 205.52C166.221 205.52 166.408 205.547 166.592 205.602C166.779 205.656 166.957 205.738 167.125 205.848C167.293 205.957 167.447 206.092 167.588 206.252C167.729 206.412 167.85 206.6 167.951 206.814C168.072 206.627 168.229 206.455 168.42 206.299C168.615 206.139 168.83 206.002 169.064 205.889C169.299 205.771 169.547 205.682 169.809 205.619C170.074 205.553 170.338 205.52 170.6 205.52C171.021 205.52 171.379 205.58 171.672 205.701C171.969 205.822 172.207 205.994 172.387 206.217C172.57 206.439 172.703 206.707 172.785 207.02C172.867 207.332 172.908 207.678 172.908 208.057V212H170.377V208.426C170.377 208.312 170.363 208.184 170.336 208.039C170.312 207.891 170.266 207.752 170.195 207.623C170.125 207.49 170.027 207.379 169.902 207.289C169.781 207.199 169.621 207.154 169.422 207.154C169.285 207.154 169.156 207.188 169.035 207.254C168.914 207.32 168.807 207.408 168.713 207.518C168.619 207.627 168.545 207.752 168.49 207.893C168.436 208.033 168.408 208.178 168.408 208.326V212H165.877V208.426C165.877 208.266 165.861 208.109 165.83 207.957C165.803 207.805 165.754 207.67 165.684 207.553C165.613 207.432 165.518 207.336 165.396 207.266C165.275 207.191 165.123 207.154 164.939 207.154C164.811 207.154 164.678 207.18 164.541 207.23C164.408 207.277 164.287 207.344 164.178 207.43C164.072 207.512 163.984 207.611 163.914 207.729C163.848 207.846 163.814 207.973 163.814 208.109V212H161.283V205.678ZM177.9 212.17C177.439 212.17 177.029 212.127 176.67 212.041C176.311 211.955 175.996 211.836 175.727 211.684C175.457 211.531 175.227 211.352 175.035 211.145C174.848 210.934 174.695 210.705 174.578 210.459C174.461 210.213 174.375 209.953 174.32 209.68C174.27 209.406 174.244 209.129 174.244 208.848C174.244 208.57 174.27 208.297 174.32 208.027C174.375 207.754 174.461 207.494 174.578 207.248C174.695 206.998 174.848 206.77 175.035 206.562C175.223 206.352 175.451 206.17 175.721 206.018C175.994 205.861 176.311 205.74 176.67 205.654C177.029 205.564 177.439 205.52 177.9 205.52C178.361 205.52 178.771 205.564 179.131 205.654C179.49 205.74 179.805 205.861 180.074 206.018C180.348 206.17 180.578 206.352 180.766 206.562C180.953 206.77 181.105 206.998 181.223 207.248C181.34 207.494 181.424 207.754 181.475 208.027C181.529 208.297 181.557 208.57 181.557 208.848C181.557 209.129 181.529 209.406 181.475 209.68C181.424 209.953 181.34 210.213 181.223 210.459C181.105 210.705 180.951 210.934 180.76 211.145C180.572 211.352 180.344 211.531 180.074 211.684C179.805 211.836 179.49 211.955 179.131 212.041C178.771 212.127 178.361 212.17 177.9 212.17ZM176.775 208.848C176.775 209.059 176.795 209.266 176.834 209.469C176.873 209.668 176.936 209.848 177.021 210.008C177.111 210.164 177.227 210.291 177.367 210.389C177.512 210.482 177.689 210.529 177.9 210.529C178.111 210.529 178.287 210.482 178.428 210.389C178.572 210.291 178.688 210.164 178.773 210.008C178.863 209.848 178.928 209.668 178.967 209.469C179.006 209.266 179.025 209.059 179.025 208.848C179.025 208.637 179.006 208.432 178.967 208.232C178.928 208.029 178.863 207.85 178.773 207.693C178.688 207.533 178.572 207.404 178.428 207.307C178.287 207.209 178.111 207.16 177.9 207.16C177.689 207.16 177.512 207.209 177.367 207.307C177.227 207.404 177.111 207.533 177.021 207.693C176.936 207.85 176.873 208.029 176.834 208.232C176.795 208.432 176.775 208.637 176.775 208.848ZM182.939 205.678H185.471C185.447 205.811 185.424 205.982 185.4 206.193C185.377 206.4 185.365 206.615 185.365 206.838C185.498 206.639 185.664 206.459 185.863 206.299C186.066 206.135 186.289 205.996 186.531 205.883C186.773 205.766 187.029 205.676 187.299 205.613C187.572 205.551 187.848 205.52 188.125 205.52C188.43 205.52 188.719 205.566 188.992 205.66C189.266 205.75 189.506 205.895 189.713 206.094C189.92 206.293 190.084 206.553 190.205 206.873C190.326 207.189 190.387 207.574 190.387 208.027V212H187.855V208.396C187.855 208.154 187.83 207.953 187.779 207.793C187.729 207.633 187.658 207.506 187.568 207.412C187.479 207.318 187.371 207.252 187.246 207.213C187.125 207.174 186.992 207.154 186.848 207.154C186.691 207.154 186.537 207.182 186.385 207.236C186.232 207.287 186.094 207.357 185.969 207.447C185.844 207.537 185.736 207.643 185.646 207.764C185.557 207.885 185.498 208.014 185.471 208.15V212H182.939V205.678ZM194.582 212.17C194.199 212.17 193.834 212.105 193.486 211.977C193.143 211.848 192.84 211.648 192.578 211.379C192.32 211.105 192.113 210.76 191.957 210.342C191.805 209.924 191.729 209.426 191.729 208.848C191.729 208.238 191.807 207.723 191.963 207.301C192.123 206.875 192.332 206.531 192.59 206.27C192.848 206.004 193.143 205.812 193.475 205.695C193.807 205.578 194.148 205.52 194.5 205.52C194.723 205.52 194.945 205.545 195.168 205.596C195.391 205.646 195.6 205.719 195.795 205.812C195.99 205.902 196.166 206.01 196.322 206.135C196.479 206.26 196.602 206.396 196.691 206.545V203H199.223V212H196.691V210.957C196.586 211.148 196.457 211.32 196.305 211.473C196.152 211.621 195.982 211.748 195.795 211.854C195.611 211.955 195.416 212.033 195.209 212.088C195.002 212.143 194.793 212.17 194.582 212.17ZM194.26 208.854C194.26 209.174 194.295 209.441 194.365 209.656C194.436 209.871 194.527 210.045 194.641 210.178C194.758 210.307 194.889 210.4 195.033 210.459C195.182 210.514 195.332 210.541 195.484 210.541C195.637 210.541 195.785 210.514 195.93 210.459C196.074 210.4 196.203 210.307 196.316 210.178C196.43 210.045 196.52 209.871 196.586 209.656C196.656 209.438 196.691 209.168 196.691 208.848C196.691 208.531 196.656 208.266 196.586 208.051C196.52 207.832 196.43 207.656 196.316 207.523C196.203 207.391 196.074 207.297 195.93 207.242C195.789 207.184 195.643 207.154 195.49 207.154C195.338 207.154 195.188 207.184 195.039 207.242C194.895 207.297 194.764 207.391 194.646 207.523C194.529 207.656 194.436 207.832 194.365 208.051C194.295 208.266 194.26 208.533 194.26 208.854ZM206.916 211.748C206.549 211.869 206.152 211.969 205.727 212.047C205.301 212.129 204.857 212.17 204.396 212.17C203.893 212.17 203.412 212.104 202.955 211.971C202.498 211.838 202.096 211.631 201.748 211.35C201.4 211.068 201.123 210.713 200.916 210.283C200.713 209.85 200.611 209.334 200.611 208.736C200.611 208.396 200.664 208.082 200.77 207.793C200.875 207.5 201.018 207.234 201.197 206.996C201.381 206.758 201.594 206.547 201.836 206.363C202.082 206.18 202.344 206.025 202.621 205.9C202.902 205.775 203.191 205.682 203.488 205.619C203.785 205.553 204.076 205.52 204.361 205.52C204.811 205.52 205.207 205.57 205.551 205.672C205.895 205.77 206.18 205.902 206.406 206.07C206.637 206.238 206.811 206.434 206.928 206.656C207.045 206.879 207.104 207.115 207.104 207.365C207.104 207.67 207.051 207.93 206.945 208.145C206.844 208.359 206.705 208.541 206.529 208.689C206.357 208.834 206.156 208.949 205.926 209.035C205.699 209.117 205.459 209.182 205.205 209.229C204.951 209.271 204.691 209.299 204.426 209.311C204.164 209.322 203.914 209.328 203.676 209.328C203.594 209.328 203.514 209.328 203.436 209.328C203.361 209.324 203.287 209.322 203.213 209.322C203.244 209.545 203.305 209.732 203.395 209.885C203.488 210.037 203.604 210.162 203.74 210.26C203.881 210.354 204.041 210.422 204.221 210.465C204.404 210.504 204.6 210.523 204.807 210.523C204.963 210.523 205.129 210.512 205.305 210.488C205.484 210.465 205.664 210.434 205.844 210.395C206.027 210.352 206.209 210.305 206.389 210.254C206.572 210.199 206.748 210.143 206.916 210.084V211.748ZM203.16 208.42C203.254 208.416 203.373 208.41 203.518 208.402C203.666 208.395 203.822 208.381 203.986 208.361C204.15 208.342 204.314 208.314 204.479 208.279C204.643 208.244 204.791 208.199 204.924 208.145C205.057 208.09 205.164 208.021 205.246 207.939C205.328 207.857 205.369 207.758 205.369 207.641C205.369 207.441 205.289 207.283 205.129 207.166C204.973 207.045 204.754 206.984 204.473 206.984C204.344 206.984 204.205 207.004 204.057 207.043C203.908 207.078 203.77 207.148 203.641 207.254C203.512 207.359 203.402 207.506 203.312 207.693C203.223 207.881 203.172 208.123 203.16 208.42ZM215.277 212.17C214.895 212.17 214.529 212.105 214.182 211.977C213.838 211.848 213.535 211.648 213.273 211.379C213.016 211.105 212.809 210.76 212.652 210.342C212.5 209.924 212.424 209.426 212.424 208.848C212.424 208.238 212.502 207.723 212.658 207.301C212.818 206.875 213.027 206.531 213.285 206.27C213.543 206.004 213.838 205.812 214.17 205.695C214.502 205.578 214.844 205.52 215.195 205.52C215.418 205.52 215.641 205.545 215.863 205.596C216.086 205.646 216.295 205.719 216.49 205.812C216.686 205.902 216.861 206.01 217.018 206.135C217.174 206.26 217.297 206.396 217.387 206.545V203H219.918V212H217.387V210.957C217.281 211.148 217.152 211.32 217 211.473C216.848 211.621 216.678 211.748 216.49 211.854C216.307 211.955 216.111 212.033 215.904 212.088C215.697 212.143 215.488 212.17 215.277 212.17ZM214.955 208.854C214.955 209.174 214.99 209.441 215.061 209.656C215.131 209.871 215.223 210.045 215.336 210.178C215.453 210.307 215.584 210.4 215.729 210.459C215.877 210.514 216.027 210.541 216.18 210.541C216.332 210.541 216.48 210.514 216.625 210.459C216.77 210.4 216.898 210.307 217.012 210.178C217.125 210.045 217.215 209.871 217.281 209.656C217.352 209.438 217.387 209.168 217.387 208.848C217.387 208.531 217.352 208.266 217.281 208.051C217.215 207.832 217.125 207.656 217.012 207.523C216.898 207.391 216.77 207.297 216.625 207.242C216.484 207.184 216.338 207.154 216.186 207.154C216.033 207.154 215.883 207.184 215.734 207.242C215.59 207.297 215.459 207.391 215.342 207.523C215.225 207.656 215.131 207.832 215.061 208.051C214.99 208.266 214.955 208.533 214.955 208.854ZM223.211 205.438C223.211 205.305 223.186 205.191 223.135 205.098C223.084 205.004 223 204.928 222.883 204.869C222.766 204.807 222.611 204.762 222.42 204.734C222.229 204.703 221.992 204.688 221.711 204.688V203.562H222.273C222.566 203.562 222.857 203.598 223.146 203.668C223.436 203.738 223.695 203.865 223.926 204.049C224.16 204.229 224.35 204.479 224.494 204.799C224.639 205.115 224.711 205.52 224.711 206.012C224.711 206.617 224.576 207.08 224.307 207.4C224.037 207.717 223.635 207.875 223.1 207.875C222.834 207.875 222.602 207.834 222.402 207.752C222.207 207.666 222.043 207.557 221.91 207.424C221.781 207.287 221.684 207.135 221.617 206.967C221.555 206.799 221.523 206.633 221.523 206.469C221.523 206.309 221.551 206.154 221.605 206.006C221.66 205.857 221.736 205.729 221.834 205.619C221.932 205.506 222.045 205.416 222.174 205.35C222.307 205.283 222.449 205.25 222.602 205.25C222.801 205.25 223.004 205.312 223.211 205.438ZM227.658 212.17C227.408 212.17 227.168 212.135 226.938 212.064C226.711 211.994 226.51 211.887 226.334 211.742C226.158 211.598 226.018 211.416 225.912 211.197C225.811 210.975 225.76 210.713 225.76 210.412C225.76 210.123 225.807 209.873 225.9 209.662C225.994 209.447 226.119 209.264 226.275 209.111C226.436 208.959 226.621 208.834 226.832 208.736C227.047 208.635 227.273 208.557 227.512 208.502C227.75 208.443 227.994 208.404 228.244 208.385C228.498 208.361 228.744 208.35 228.982 208.35C229.146 208.35 229.305 208.354 229.457 208.361C229.609 208.369 229.752 208.379 229.885 208.391C229.877 208.145 229.83 207.941 229.744 207.781C229.658 207.617 229.545 207.488 229.404 207.395C229.264 207.297 229.1 207.229 228.912 207.189C228.725 207.15 228.527 207.131 228.32 207.131C228.129 207.131 227.932 207.145 227.729 207.172C227.529 207.195 227.334 207.227 227.143 207.266C226.951 207.301 226.768 207.34 226.592 207.383C226.42 207.426 226.268 207.465 226.135 207.5V205.859C226.326 205.816 226.531 205.775 226.75 205.736C226.973 205.693 227.203 205.656 227.441 205.625C227.68 205.594 227.922 205.568 228.168 205.549C228.418 205.529 228.664 205.52 228.906 205.52C229.207 205.52 229.502 205.539 229.791 205.578C230.084 205.613 230.359 205.674 230.617 205.76C230.879 205.846 231.119 205.961 231.338 206.105C231.561 206.25 231.75 206.43 231.906 206.645C232.066 206.855 232.191 207.105 232.281 207.395C232.371 207.684 232.416 208.018 232.416 208.396V212H230.002V210.951C229.908 211.143 229.777 211.314 229.609 211.467C229.441 211.615 229.252 211.742 229.041 211.848C228.83 211.953 228.605 212.033 228.367 212.088C228.129 212.143 227.893 212.17 227.658 212.17ZM228.648 210.793C228.758 210.793 228.883 210.764 229.023 210.705C229.168 210.643 229.303 210.549 229.428 210.424C229.557 210.299 229.664 210.141 229.75 209.949C229.84 209.758 229.885 209.529 229.885 209.264H229.691C229.504 209.264 229.311 209.283 229.111 209.322C228.916 209.361 228.736 209.42 228.572 209.498C228.408 209.576 228.273 209.672 228.168 209.785C228.062 209.898 228.01 210.029 228.01 210.178C228.01 210.295 228.029 210.393 228.068 210.471C228.107 210.549 228.156 210.613 228.215 210.664C228.277 210.711 228.346 210.744 228.42 210.764C228.498 210.783 228.574 210.793 228.648 210.793ZM233.371 205.678H236.213L237.309 210.412L238.533 205.678H240.684L238.662 212H235.457L233.371 205.678ZM247.627 211.748C247.26 211.869 246.863 211.969 246.438 212.047C246.012 212.129 245.568 212.17 245.107 212.17C244.604 212.17 244.123 212.104 243.666 211.971C243.209 211.838 242.807 211.631 242.459 211.35C242.111 211.068 241.834 210.713 241.627 210.283C241.424 209.85 241.322 209.334 241.322 208.736C241.322 208.396 241.375 208.082 241.48 207.793C241.586 207.5 241.729 207.234 241.908 206.996C242.092 206.758 242.305 206.547 242.547 206.363C242.793 206.18 243.055 206.025 243.332 205.9C243.613 205.775 243.902 205.682 244.199 205.619C244.496 205.553 244.787 205.52 245.072 205.52C245.521 205.52 245.918 205.57 246.262 205.672C246.605 205.77 246.891 205.902 247.117 206.07C247.348 206.238 247.521 206.434 247.639 206.656C247.756 206.879 247.814 207.115 247.814 207.365C247.814 207.67 247.762 207.93 247.656 208.145C247.555 208.359 247.416 208.541 247.24 208.689C247.068 208.834 246.867 208.949 246.637 209.035C246.41 209.117 246.17 209.182 245.916 209.229C245.662 209.271 245.402 209.299 245.137 209.311C244.875 209.322 244.625 209.328 244.387 209.328C244.305 209.328 244.225 209.328 244.146 209.328C244.072 209.324 243.998 209.322 243.924 209.322C243.955 209.545 244.016 209.732 244.105 209.885C244.199 210.037 244.314 210.162 244.451 210.26C244.592 210.354 244.752 210.422 244.932 210.465C245.115 210.504 245.311 210.523 245.518 210.523C245.674 210.523 245.84 210.512 246.016 210.488C246.195 210.465 246.375 210.434 246.555 210.395C246.738 210.352 246.92 210.305 247.1 210.254C247.283 210.199 247.459 210.143 247.627 210.084V211.748ZM243.871 208.42C243.965 208.416 244.084 208.41 244.229 208.402C244.377 208.395 244.533 208.381 244.697 208.361C244.861 208.342 245.025 208.314 245.189 208.279C245.354 208.244 245.502 208.199 245.635 208.145C245.768 208.09 245.875 208.021 245.957 207.939C246.039 207.857 246.08 207.758 246.08 207.641C246.08 207.441 246 207.283 245.84 207.166C245.684 207.045 245.465 206.984 245.184 206.984C245.055 206.984 244.916 207.004 244.768 207.043C244.619 207.078 244.48 207.148 244.352 207.254C244.223 207.359 244.113 207.506 244.023 207.693C243.934 207.881 243.883 208.123 243.871 208.42ZM249.373 205.678H251.904C251.881 205.811 251.857 205.982 251.834 206.193C251.811 206.4 251.799 206.615 251.799 206.838C251.932 206.639 252.098 206.459 252.297 206.299C252.5 206.135 252.723 205.996 252.965 205.883C253.207 205.766 253.463 205.676 253.732 205.613C254.006 205.551 254.281 205.52 254.559 205.52C254.863 205.52 255.152 205.566 255.426 205.66C255.699 205.75 255.939 205.895 256.146 206.094C256.354 206.293 256.518 206.553 256.639 206.873C256.76 207.189 256.82 207.574 256.82 208.027V212H254.289V208.396C254.289 208.154 254.264 207.953 254.213 207.793C254.162 207.633 254.092 207.506 254.002 207.412C253.912 207.318 253.805 207.252 253.68 207.213C253.559 207.174 253.426 207.154 253.281 207.154C253.125 207.154 252.971 207.182 252.818 207.236C252.666 207.287 252.527 207.357 252.402 207.447C252.277 207.537 252.17 207.643 252.08 207.764C251.99 207.885 251.932 208.014 251.904 208.15V212H249.373V205.678ZM261.73 212.17C261.367 212.17 261.02 212.125 260.688 212.035C260.355 211.949 260.062 211.803 259.809 211.596C259.559 211.385 259.357 211.107 259.205 210.764C259.057 210.416 258.982 209.984 258.982 209.469V207.131H257.816V206.75L260.576 203.75H261.514V205.678H263.389C263.342 205.912 263.299 206.148 263.26 206.387C263.225 206.625 263.205 206.873 263.201 207.131H261.514V209.445C261.514 209.586 261.523 209.723 261.543 209.855C261.566 209.984 261.611 210.1 261.678 210.201C261.744 210.299 261.84 210.379 261.965 210.441C262.09 210.5 262.256 210.529 262.463 210.529C262.596 210.529 262.742 210.518 262.902 210.494C263.062 210.467 263.244 210.418 263.447 210.348L263.588 211.865C263.342 211.955 263.059 212.027 262.738 212.082C262.422 212.141 262.086 212.17 261.73 212.17ZM271.82 212H269.295L269.348 211.596C269.363 211.471 269.377 211.33 269.389 211.174C269.4 211.018 269.41 210.855 269.418 210.688C269.301 210.918 269.152 211.125 268.973 211.309C268.797 211.488 268.602 211.643 268.387 211.771C268.172 211.9 267.943 211.998 267.701 212.064C267.459 212.135 267.215 212.17 266.969 212.17C266.664 212.17 266.375 212.119 266.102 212.018C265.828 211.92 265.586 211.764 265.375 211.549C265.168 211.33 265.002 211.051 264.877 210.711C264.756 210.367 264.695 209.953 264.695 209.469V205.678H267.227V209.234C267.227 209.477 267.248 209.68 267.291 209.844C267.338 210.008 267.4 210.141 267.479 210.242C267.557 210.344 267.646 210.418 267.748 210.465C267.85 210.508 267.957 210.529 268.07 210.529C268.203 210.529 268.336 210.502 268.469 210.447C268.605 210.393 268.729 210.318 268.838 210.225C268.951 210.131 269.047 210.021 269.125 209.896C269.207 209.768 269.262 209.631 269.289 209.486V205.678H271.82V212ZM273.654 205.678H276.062C276.055 205.779 276.049 205.893 276.045 206.018C276.041 206.139 276.039 206.268 276.039 206.404C276.039 206.537 276.039 206.672 276.039 206.809C276.039 206.945 276.039 207.076 276.039 207.201C276.117 207.01 276.219 206.814 276.344 206.615C276.469 206.412 276.615 206.23 276.783 206.07C276.955 205.91 277.148 205.779 277.363 205.678C277.582 205.572 277.826 205.52 278.096 205.52C278.146 205.52 278.201 205.523 278.26 205.531C278.322 205.535 278.383 205.543 278.441 205.555C278.5 205.566 278.555 205.582 278.605 205.602C278.66 205.617 278.705 205.637 278.74 205.66L278.535 208.074C278.359 208.008 278.174 207.959 277.979 207.928C277.783 207.893 277.613 207.875 277.469 207.875C277.27 207.875 277.094 207.9 276.941 207.951C276.793 207.998 276.666 208.061 276.561 208.139C276.455 208.217 276.371 208.303 276.309 208.396C276.25 208.49 276.209 208.582 276.186 208.672V212H273.654V205.678ZM285.666 211.748C285.299 211.869 284.902 211.969 284.477 212.047C284.051 212.129 283.607 212.17 283.146 212.17C282.643 212.17 282.162 212.104 281.705 211.971C281.248 211.838 280.846 211.631 280.498 211.35C280.15 211.068 279.873 210.713 279.666 210.283C279.463 209.85 279.361 209.334 279.361 208.736C279.361 208.396 279.414 208.082 279.52 207.793C279.625 207.5 279.768 207.234 279.947 206.996C280.131 206.758 280.344 206.547 280.586 206.363C280.832 206.18 281.094 206.025 281.371 205.9C281.652 205.775 281.941 205.682 282.238 205.619C282.535 205.553 282.826 205.52 283.111 205.52C283.561 205.52 283.957 205.57 284.301 205.672C284.645 205.77 284.93 205.902 285.156 206.07C285.387 206.238 285.561 206.434 285.678 206.656C285.795 206.879 285.854 207.115 285.854 207.365C285.854 207.67 285.801 207.93 285.695 208.145C285.594 208.359 285.455 208.541 285.279 208.689C285.107 208.834 284.906 208.949 284.676 209.035C284.449 209.117 284.209 209.182 283.955 209.229C283.701 209.271 283.441 209.299 283.176 209.311C282.914 209.322 282.664 209.328 282.426 209.328C282.344 209.328 282.264 209.328 282.186 209.328C282.111 209.324 282.037 209.322 281.963 209.322C281.994 209.545 282.055 209.732 282.145 209.885C282.238 210.037 282.354 210.162 282.49 210.26C282.631 210.354 282.791 210.422 282.971 210.465C283.154 210.504 283.35 210.523 283.557 210.523C283.713 210.523 283.879 210.512 284.055 210.488C284.234 210.465 284.414 210.434 284.594 210.395C284.777 210.352 284.959 210.305 285.139 210.254C285.322 210.199 285.498 210.143 285.666 210.084V211.748ZM281.91 208.42C282.004 208.416 282.123 208.41 282.268 208.402C282.416 208.395 282.572 208.381 282.736 208.361C282.9 208.342 283.064 208.314 283.229 208.279C283.393 208.244 283.541 208.199 283.674 208.145C283.807 208.09 283.914 208.021 283.996 207.939C284.078 207.857 284.119 207.758 284.119 207.641C284.119 207.441 284.039 207.283 283.879 207.166C283.723 207.045 283.504 206.984 283.223 206.984C283.094 206.984 282.955 207.004 282.807 207.043C282.658 207.078 282.52 207.148 282.391 207.254C282.262 207.359 282.152 207.506 282.062 207.693C281.973 207.881 281.922 208.123 281.91 208.42ZM292.334 207.57C291.943 207.391 291.561 207.252 291.186 207.154C290.814 207.053 290.488 207.002 290.207 207.002C289.91 207.002 289.699 207.031 289.574 207.09C289.449 207.145 289.387 207.242 289.387 207.383C289.387 207.508 289.479 207.607 289.662 207.682C289.846 207.752 290.115 207.834 290.471 207.928C290.826 208.021 291.145 208.125 291.426 208.238C291.707 208.352 291.945 208.492 292.141 208.66C292.34 208.828 292.49 209.029 292.592 209.264C292.697 209.498 292.75 209.785 292.75 210.125C292.75 210.43 292.691 210.709 292.574 210.963C292.457 211.213 292.279 211.428 292.041 211.607C291.803 211.787 291.502 211.926 291.139 212.023C290.775 212.121 290.348 212.17 289.855 212.17C289.418 212.17 288.979 212.137 288.537 212.07C288.096 212.008 287.65 211.895 287.201 211.73V209.92C287.604 210.096 288.008 210.236 288.414 210.342C288.82 210.447 289.207 210.5 289.574 210.5C290.234 210.5 290.564 210.363 290.564 210.09C290.564 210.043 290.549 210 290.518 209.961C290.486 209.922 290.428 209.885 290.342 209.85C290.26 209.811 290.143 209.771 289.99 209.732C289.842 209.689 289.65 209.639 289.416 209.58C289.092 209.502 288.785 209.402 288.496 209.281C288.211 209.156 287.961 209.006 287.746 208.83C287.535 208.65 287.367 208.441 287.242 208.203C287.121 207.965 287.061 207.693 287.061 207.389C287.061 207.115 287.117 206.863 287.23 206.633C287.348 206.402 287.521 206.205 287.752 206.041C287.986 205.877 288.275 205.75 288.619 205.66C288.967 205.566 289.369 205.52 289.826 205.52C290.092 205.52 290.346 205.531 290.588 205.555C290.834 205.578 291.066 205.607 291.285 205.643C291.504 205.674 291.707 205.709 291.895 205.748C292.086 205.783 292.262 205.816 292.422 205.848L292.334 207.57Z" fill="#FF998B"/>
<path d="M107.929 56.3009C109.513 56.1425 110.445 55.3197 111.81 54.5369C117.841 51.0795 124.69 49.7799 131.45 48.5391C136.486 47.6148 140.133 45.3671 144.974 43.835C151.719 41.7005 159.015 43.0453 165.908 41.4829C170.982 40.3327 186.576 39.366 181.373 39.366C171.899 39.366 218.937 39.313 209.715 41.4829C206.422 42.2577 195.683 43.5997 205.599 43.5997C215.089 43.5997 224.584 43.6502 234.059 44.2466C234.516 44.2753 253.936 46.7431 252.464 47.8335C249.265 50.2035 242.849 51.0088 250.935 51.0088C256.688 51.0088 262.479 50.8433 268.223 51.244C270.291 51.3883 275.946 51.7404 274.221 52.8904C273.858 53.1325 270.114 53.5148 270.222 53.9489C270.387 54.6099 276.507 54.1778 277.043 54.1841C281.68 54.238 286.513 54.3782 291.038 55.4777C292.547 55.8443 296.912 58.4048 293.096 59.3586C292.578 59.4881 290.017 59.1876 291.567 59.6526C295.2 60.7425 298.761 62.1571 302.269 63.5923C309.924 66.7237 300.338 66.4181 301.858 69.0021C303.997 72.6392 327.078 75.3121 324.555 80.7625C323.339 83.3892 317.935 81.6158 316.676 83.8202C315.701 85.5264 324.169 89.4998 325.084 89.9943C329.799 92.543 327.594 93.985 324.026 95.9921C319.081 98.7734 337.944 103.553 339.138 103.989C341.534 104.865 358.849 109.755 351.957 113.515C349.622 114.789 352.837 117.095 353.78 117.749C367.421 127.21 382.662 134.034 395.94 144.151C398.634 146.203 413.916 156.403 404.761 160.38C401.82 161.658 395.85 160.823 393.471 163.203C392.115 164.558 394.224 167.896 394.529 169.318C395.305 172.938 387.91 179.116 385.826 181.431C381.258 186.507 372.863 191.417 369.95 197.66C368.359 201.069 366.728 200.641 364.775 203.482C363.111 205.903 364.481 209.274 362.835 211.949C360.177 216.268 353.197 218.242 351.486 222.945C349.937 227.206 350.109 226.987 345.371 229.296C341.591 231.137 338.371 233.462 336.433 237.293C334.358 241.395 333.905 243.391 328.789 244.231C321.682 245.398 314.659 244.897 307.797 247.348C300.161 250.075 290.751 246.671 282.806 248.465C275.564 250.1 267.034 249.994 258.815 249.994C255.312 249.994 251.908 248.486 253.993 251.052C254.168 251.268 235.413 252.175 233.059 252.346C217.575 253.472 202.032 253.169 186.488 253.169C174.952 253.169 162.309 254.809 151.031 252.64C148.989 252.247 146.796 252.496 144.798 252.052C144.512 251.988 145.708 251.042 144.974 250.406C141.195 247.13 133.774 246.047 129.216 244.819C127.557 244.373 115.669 243.133 114.515 241.056C113.266 238.808 120.039 238.329 118.866 235.764C117.286 232.308 110.187 231.366 107.224 230.472C100.338 228.394 93.5346 226.06 86.6431 224.004C80.1443 222.064 81.4144 221.933 80.6453 216.242C80.2633 213.415 84.4201 211.387 83.4678 209.244C81.6243 205.096 80.0611 203.851 80.5277 198.601C80.8144 195.376 81.5685 192.971 84.0558 190.839C84.9331 190.087 86.9838 189.034 86.7607 187.546C86.3765 184.985 80.0509 182.01 78.7637 181.196C74.2023 178.313 63.1655 174.234 60.5351 169.083C58.3301 164.764 71.1017 161.09 70.5314 161.027C67.5849 160.699 62.5344 160.215 62.5344 156.205C62.5344 153.013 64.6431 150.535 61.4172 148.384C57.4098 145.713 63.7837 139.229 65.4745 137.389C68.4112 134.193 68.9885 132.365 68.7674 128.274C68.4628 122.64 66.7995 119.828 68.297 113.927C68.9099 111.511 69.5826 109.538 69.8258 107.106C70.125 104.114 74.7117 102.26 76.1764 99.6966C77.9199 96.6455 80.5028 96.0125 83.115 93.8753C89.3247 88.7946 93.5755 83.208 100.697 79.41C105.487 76.8552 105.616 75.3911 107.459 71.1778C109.021 67.6063 108.681 68.07 104.989 66.65C100.839 65.0537 106.09 60.5347 108.459 60.5347C111.396 60.5347 115.338 58.2601 115.338 55.2425" stroke="#FFF500" stroke-width="2" stroke-linecap="square"/>
<path d="M117.455 67.9437C111.526 67.9437 105.159 68.9174 99.8147 71.5894C98.3443 72.3246 98.5557 72.9239 98.4035 74.2943C98.1761 76.3409 95.595 75.7376 94.6402 77.1167C93.5315 78.7181 94.4558 80.7651 95.2282 82.2325C96.8608 85.3346 94.5125 84.8661 92.1705 86.525C90.3459 87.8174 89.936 88.7105 89.936 90.7588C89.936 93.3994 87.5486 94.3006 85.8199 95.9333C83.8263 97.8161 82.7796 99.3717 83.703 102.284C84.3362 104.281 90.7115 110.148 90.2888 111.575C89.6707 113.661 86.3414 114.146 85.3495 116.22C84.0713 118.892 85.3102 121.316 85.6435 123.982C86.0694 127.389 80.2705 128.679 80.4101 133.566C80.4508 134.989 81.6782 136.701 81.2334 138.035C80.371 140.622 77.957 142.023 77.47 144.856C76.6286 149.752 76.1237 154.708 75.0592 159.498C74.6645 161.274 73.9866 162.11 74.2947 164.143C74.489 165.425 77.5933 171.165 76.9996 171.435C71.7806 173.807 77.9666 174.928 75.118 177.491C71.3517 180.881 77.7718 183.799 77.176 187.076C76.4444 191.1 77.1176 193.558 77.2348 197.66C77.2662 198.759 78.2654 203.022 77.764 203.423C76.9721 204.056 77.3615 204.888 77.2348 205.775C76.9271 207.929 73.0121 200.421 72.7659 199.777C69.5287 191.311 75.5718 198.464 74.8828 201.306C73.4134 207.367 66.0677 210.786 60.7703 212.361C53.7592 214.445 38.9353 213.348 34.0743 219.535C30.7667 223.744 62.9464 231.655 65.4157 232.353C68.3873 233.194 68.9697 234.755 71.3547 235.764C74.9274 237.275 79.1645 237.17 82.5858 238.88C84.822 239.999 93.5284 237.903 94.1697 240.468C94.5357 241.932 96.0495 241.271 97.1686 241.644C98.8032 242.189 96.3792 244.404 98.1683 244.643C100.619 244.97 104.181 243.855 106.401 245.172C108.91 246.662 99.0408 252.913 98.0507 253.757C94.9643 256.388 94.9365 257.357 99.1091 257.403C109.172 257.515 120.796 255.58 130.627 257.873C138 259.594 128.111 271.846 137.036 269.987C141.766 269.001 147.03 267.63 151.913 267.987C154.618 268.185 153.095 273.614 153.442 275.279C154.114 278.507 158.602 271.169 161.263 269.222C165.796 265.905 167.679 266.97 170.318 271.457C171.97 274.265 175.577 272.806 177.786 271.633C183.868 268.402 182.804 271.634 186.136 276.278C192.486 285.13 205.027 271.253 207.892 279.277C210.75 287.278 224.371 286.038 230.119 281.335C231.621 280.107 231.539 281.703 231.766 282.805C232.59 286.806 239.541 287.209 242.585 286.333C245.482 285.501 247.978 282.908 251.053 282.805C254.75 282.682 257.077 282.544 259.52 279.395C260.959 277.54 262.203 274.226 264.166 272.868C267.037 270.88 270.299 271.444 272.927 268.458C273.19 268.159 276.021 263.95 276.22 264.812C276.57 266.329 278.548 266.12 279.748 265.4C286.72 261.217 295.158 260.125 303.386 262.401C306.579 263.284 311.597 267.473 314.912 266.87C318.279 266.258 319.585 261.128 321.615 258.873C324.234 255.963 330.162 259.494 333.963 254.933C334.71 254.038 335.118 250.734 335.551 251.817C336.132 253.268 337.324 254.77 339.138 254.11C340.922 253.461 340.131 251 341.255 249.876C342.237 248.894 344.63 250.487 346.076 249.288C349.458 246.486 349.806 241.23 351.957 237.646C352.822 236.203 355.474 240.286 357.131 239.762C364.547 237.421 363.859 223.279 364.599 217.065C365.889 206.232 363.372 196.367 363.011 186.018C362.857 181.583 362.243 177.199 360.189 173.199C358.012 168.96 353.913 165.531 353.544 160.556C352.899 151.847 351.369 144.037 351.369 135.095C351.369 130.243 352.117 124.073 349.487 119.689C348.196 117.537 348.193 116.854 348.193 114.044C348.193 106.113 347.409 102.695 341.372 97.521C340.116 96.4444 340.291 93.7025 339.255 92.2876C335.42 87.0484 327.959 82.731 322.438 79.4688C320.929 78.5772 316.303 76.7389 315.617 75.1175C314.787 73.1558 312.463 68.6114 311.148 67.2968C305.751 61.8997 295.29 66.1904 293.155 58.1826C291.998 53.843 283.874 50.6167 280.336 49.1271C278.644 48.4147 264.991 46.3724 264.636 45.1286C264.286 43.9031 265.622 43.5621 265.459 42.4237C264.894 38.4704 257.2 38.8776 254.463 37.7196C252.413 36.8519 252.298 34.7973 249.759 34.3091C247.167 33.8105 243.466 34.8635 241.292 33.0154C236.093 28.5963 231.201 26.0113 224.945 23.0191C209.146 15.4629 192.514 17.1389 175.316 17.1389C165.707 17.1389 164.291 17.5738 156.735 22.4311C153.412 24.5673 151.664 28.4065 148.385 30.8986C145.635 32.9887 142.646 38.9155 140.741 42.0121C138.421 45.7821 139.608 49.4497 137.565 53.1256C134.923 57.8828 135.858 67.9437 127.51 67.9437C122.25 67.9437 117.489 68.2737 113.222 71.119" stroke="#00FF38" stroke-width="2" stroke-linecap="square"/>
<path d="M281.512 89.1123C281.107 82.2153 277.236 76.1853 273.809 70.4133C272.425 68.0827 273.655 67.4577 272.81 65.2388C270.493 59.1589 255.303 55.9843 250.406 53.8312C245.723 51.7722 241.6 48.4138 236.646 47.3631C233.889 46.7781 232.551 46.775 235.941 46.775C239.848 46.775 233.52 44.7415 232.883 44.4818C225.196 41.3442 217.042 39.1688 209.48 35.7791C204.585 33.5849 199.242 34.0066 194.015 32.8978C191.804 32.4288 189.322 28.7711 187.723 30.3693C186.623 31.4694 183.644 30.8986 182.372 30.8986C176.002 30.8986 169.632 30.8986 163.262 30.8986C152.733 30.8986 142.402 29.8401 131.862 29.8401C126.756 29.8401 110.459 26.7942 107.929 32.4862C106.149 36.4926 98.7089 32.2007 98.4036 38.3076C98.3275 39.8289 96.7688 44.8699 96.0515 46.3046C94.6414 49.1247 91.4029 52.148 89.7009 55.2425C87.5472 59.1582 80.8596 56.5741 80.4102 62.4163C80.2683 64.2617 79.2651 65.7574 79.3518 67.7085C79.4997 71.0368 82.0517 72.1674 83.3503 74.7647C85.1887 78.4415 75.6572 81.069 74.1772 81.7033C72.1406 82.5761 71.7964 83.5472 69.1203 84.2906C64.469 85.5826 65.0579 87.2124 63.0049 90.4059C59.9893 95.0969 52.8805 94.9143 56.5367 102.872C58.3659 106.853 58.5055 105.507 56.4191 109.869C53.7211 115.511 51.4269 116.578 50.7153 122.982C50.4338 125.516 48.4654 125.119 47.7164 126.804C47.0225 128.366 47.5988 131.309 47.5988 132.978C47.5988 137.912 47.0095 139.899 42.8359 142.975C39.7728 145.232 40.1244 147.549 36.5441 149.502C34.1811 150.791 34.8977 154.751 34.8977 156.97C34.8977 161.447 38.073 164.229 38.073 168.965C38.073 172.213 37.5781 175.926 38.661 179.02C40.1999 183.417 42.5643 187.587 43.3651 192.192C44.0765 196.282 48.1428 198.222 50.3037 201.365C53.1398 205.49 55.524 208.532 59.8296 211.361C62.5881 213.174 65.1112 215.313 67.8266 217.124C69.5062 218.243 72.0346 217.59 73.06 219.299C74.2903 221.35 78.5725 220.863 80.6454 221.416C81.9126 221.754 81.9845 223.5 83.3503 224.004C88.1802 225.783 95.2789 224.592 100.462 224.592C102.557 224.592 103.985 225.33 105.871 226.179C109.817 227.955 113.95 227.562 118.161 227.826C124.229 228.205 134.424 229.245 138.918 233.177C141.053 235.045 143.702 235.769 146.151 237.058C146.219 237.094 144.514 237.734 144.151 238.351C142.386 241.353 142.858 244.478 142.858 247.877C142.858 258.843 148.723 272.169 156.735 278.924C165.903 286.654 176.645 290.37 188.017 294.801C192.916 296.709 193.874 302.682 199.66 304.68C206.304 306.973 214.163 308.828 220.358 312.089C223.94 313.974 226.713 315.886 230.708 316.91C236.116 318.297 245.921 319.551 250.347 315.617C255.675 310.881 247.465 304.395 256.698 304.033C267.238 303.619 277.846 303.974 288.392 303.974C296.597 303.974 304.108 304.021 311.972 301.622C320.442 299.038 322.181 295.999 327.436 290.744C330.395 287.785 331.108 278.152 330.906 274.867C330.558 269.221 323.992 264.669 328.083 260.578C335.05 253.611 320.707 245.037 315.97 241.879C313.103 239.968 315.912 238.414 316.852 236.117C318.921 231.058 313.525 228.123 309.737 226.356C300.322 221.962 316.142 227.253 318.322 222.71C320.567 218.032 324.143 213.917 322.321 208.127C321.665 206.044 319.013 204.242 320.086 201.894C321.356 199.116 322.735 197.974 322.791 194.72C322.824 192.837 322.025 189.714 323.732 188.37C325.441 187.023 328.034 186.317 328.906 184.136C332.343 175.543 345.293 172.442 350.075 164.026C352.472 159.808 349.677 156.932 348.429 152.853C346.064 145.128 354.786 142.118 357.484 136.154C359.428 131.856 357.911 127.329 359.248 122.982C359.958 120.676 361.626 119.278 362.541 117.22C363.59 114.858 363.011 111.515 363.011 108.987C363.011 102.911 363.61 97.1627 364.893 91.2292C366.084 85.7213 363.876 80.9595 358.307 79.5864C350.121 77.5678 345.508 79.898 338.197 80.8801C331.713 81.7511 328.157 84.8786 321.38 84.8786C315.877 84.8786 307.99 83.5298 302.681 85.7018C295.398 88.6812 285.144 93.346 277.279 93.346" stroke="#00C2FF" stroke-width="2" stroke-linecap="square"/>
<path d="M343.96 136.742C343.96 137.314 343.925 131.163 344.018 129.803C344.366 124.757 346.913 120.402 349.252 116.043C350.91 112.954 351.897 107.624 355.073 105.93C361.403 102.554 337.513 93.9847 345.018 93.346C350.18 92.9067 346.608 88.552 344.195 86.9954C340.762 84.7804 335.215 82.831 338.55 78.528C340.298 76.2729 337.875 73.8784 336.198 72.3538C334.698 70.9904 339.727 70.4171 340.608 69.9429C344.528 67.8323 340.981 66.4997 338.844 65.2976C337.159 64.3495 337.844 63.0636 337.492 61.4755C336.221 55.7573 326.813 51.9894 322.379 49.2447C319.778 47.6343 319.819 46.0377 317.793 44.0113C309.423 35.6417 296.445 34.4443 285.922 30.3105C282.334 28.9007 272.227 27.0116 271.986 22.4311C271.84 19.6422 268.707 16.4588 266.694 14.5517C264.189 12.1783 257.078 10.0637 253.64 9.78871C247.609 9.30619 243.831 4.43775 237.646 4.43775C232.16 4.43775 226.919 3.45124 221.417 3.37932C218.307 3.33866 192.54 -0.978117 191.546 5.73139C190.797 10.7865 184.533 10.204 180.373 13.1404C179.113 14.0299 174.613 16.7938 173.787 18.1974C172.133 21.0107 170.377 21.1193 170.377 25.0184C170.377 27.7136 168.581 28.5782 166.849 30.3105C165.698 31.4611 166.345 33.1115 166.084 34.5443C165.647 36.9496 164.026 37.8275 164.026 40.6596C164.026 47.3449 163.722 44.5164 158.734 47.0102C157.448 47.6535 158 49.4731 156.382 49.8327C151.367 50.9471 149.642 53.983 145.327 56.7125C141.999 58.818 137.385 59.9041 136.448 64.1215C136.2 65.2372 133.768 64.6969 132.92 65.3564C131.692 66.3118 129.12 67.3692 128.275 68.5317C127.446 69.6712 128.729 71.6663 127.804 72.7066C126.098 74.6269 122.711 73.7292 120.748 75.4115C119.343 76.6157 119.863 78.5419 118.22 79.5276C115.077 81.4135 111 80.2319 107.577 81.1152C105.23 81.7209 103.587 83.6443 101.344 84.4081C96.3277 86.1157 90.1147 84.5471 84.8792 85.349C81.6306 85.8465 78.581 87.9297 75.3533 88.0538C66.9186 88.3783 58.1517 89.6396 49.5981 90.2295C46.4893 90.4439 44.44 93.1082 41.4835 93.5812C37.5835 94.2052 45.7069 85.7533 46.1876 85.349C50.1794 81.9908 45.8996 82.7617 42.8947 82.7617C36.9567 82.7617 25.0209 80.8219 19.4916 83.2321C17.5711 84.0692 18.1404 86.2199 17.9627 87.8186C17.7061 90.1286 14.2281 90.4645 13.9642 92.5228C12.9762 100.229 23.1919 105.678 17.9627 112.868C16.5235 114.847 15.878 114.527 16.7867 117.102C17.4251 118.911 15.4836 119.011 14.7287 120.395C13.5799 122.501 11.3485 123.182 9.49529 124.511C5.93397 127.064 2.62457 131.415 1.49825 135.683C-1.18661 145.857 10.7927 151.105 17.1395 156.852C18.8444 158.396 24.0781 161.386 24.0781 164.143C24.0781 165.991 18.4356 166.546 17.1983 167.907C16.2053 168.999 15.5501 169.685 14.3758 170.729C12.8394 172.095 14.508 174.89 13.0234 176.374C10.7023 178.695 6.7195 179.327 5.49677 182.842C4.74035 185.017 5.26157 187.899 5.26157 190.193C5.26157 193.849 10.6065 197.819 13.0234 199.777C16.1103 202.279 26.2344 206.07 27.4886 209.832C29.8904 217.038 38.7501 223.93 45.2468 227.061C50.3245 229.509 64.3481 232.356 64.5337 239.41C64.6451 243.64 65.4254 247.858 65.5922 252.111C66.2006 267.626 73.3787 251.987 80.175 251.464C86.5525 250.973 83.8314 268.016 92.5822 261.107C96.1407 258.298 97.4027 264.653 98.6388 267.164C101.588 273.157 105.53 282.053 111.693 285.51C112.97 286.227 116.81 284.171 117.22 284.805C118.416 286.653 117.036 289.603 118.514 291.626C119.679 293.22 122.779 291.255 123.571 293.037C124.869 295.957 124.77 298.369 126.981 301.034C135.311 311.073 148.268 309.702 160.028 309.266C163.234 309.147 164.518 306.777 166.261 304.327C168.95 300.545 172.047 297.779 175.14 294.448C178.522 290.806 180.325 286.195 182.49 281.747C183.526 279.619 185.603 269.804 188.488 269.163C197.682 267.12 203.096 269.205 209.774 274.691C217.035 280.655 225.158 285.853 234.588 287.274C238.289 287.832 244.96 289.477 248.466 287.627C255.711 283.803 262.302 278.703 270.046 275.514C279.69 271.543 292.446 274.176 302.563 271.163C305.239 270.366 306.174 268.206 308.973 268.046C313.053 267.813 317.175 267.987 321.262 267.987C329.393 267.987 337.367 268.618 345.489 268.987C349.868 269.186 364.132 274.232 365.364 270.692C368.278 262.312 369.461 258.057 362.423 249.523C356.257 242.047 348.567 236.138 340.667 230.648C334.736 226.527 336.387 225.755 340.02 221.005C342.673 217.536 335.492 209.574 335.492 204.893C335.492 197.337 334.373 191.921 332.317 184.724C330.736 179.191 331.444 173.396 330.082 167.789C328.973 163.218 323.64 156.161 323.849 151.56C323.952 149.294 330.975 142.03 333.14 140.623C335.69 138.965 339.028 137.68 341.843 136.742" stroke="#BD00FF" stroke-width="2" stroke-linecap="square"/>
<path d="M260.344 245.76C258.86 247.429 258.186 248.132 256.11 249.171C253.48 250.485 251.281 253.49 248.701 254.228C245.666 255.095 244.03 255.708 242.174 257.873C241.165 259.05 238.587 257.977 238.587 260.225C238.587 264.224 242.539 265.713 243.997 268.81C245.159 271.28 241.93 276.269 241.468 278.807C241.107 280.793 241.292 282.91 241.292 284.922C241.292 288.363 243.419 291.871 240.233 293.919C238.845 294.811 238.536 295.382 237.881 296.8C236.585 299.609 233.23 298.999 231.413 301.034C229.91 302.718 232.31 304.793 233.177 306.032C234.125 307.387 230.259 309.482 229.825 310.854C228.234 315.894 227.677 315.028 223.004 318.263C221.93 319.006 222.727 320.142 222.005 320.909C219.597 323.468 210.944 321.967 207.775 321.967C201.951 321.967 195.214 320.412 190.546 324.613C187.898 326.997 184.016 333.515 180.491 333.61C176.685 333.713 172.809 334.812 169.083 334.668C166.275 334.56 164.385 332.067 162.321 330.435C158.089 327.089 153.187 324.056 148.15 322.085C142.077 319.708 135.449 319.991 135.449 312.441C135.449 310.17 136.077 307.761 136.566 305.562C138.12 298.569 150.275 297.739 148.385 290.45C147.689 287.765 150.267 283.185 150.267 280.159C150.267 275.7 146.345 271.969 143.446 269.046C139.708 265.277 129.277 259.945 128.04 254.463C127.6 252.517 127.976 250.473 127.393 248.465C126.907 246.792 125.044 245.262 124.864 243.643C124.242 238.042 117.012 236.258 114.809 231.413C114.143 229.946 114.694 229.64 115.103 228.355C116.271 224.686 112.122 219.907 109.929 217.535C107.003 214.371 106.351 212.466 102.226 210.244C100.708 209.427 96.9443 202.011 97.0511 200.836C97.284 198.273 100.271 194.286 98.9916 191.545C96.7888 186.825 90.4435 184.682 86.114 182.725C76.9222 178.57 68.065 173.935 58.6536 170.259C47.6173 165.948 57.3762 168.065 54.7726 161.556C53.2084 157.645 59.6828 155.109 59.0064 150.149C58.3183 145.103 52.6222 142.939 51.5385 138.388C50.8913 135.67 55.1368 132.575 55.9487 130.038C57.3693 125.599 52.2522 124.084 52.6558 119.572C53.2358 113.086 52.8872 102.951 55.5959 97.0505C58.5085 90.7052 63.5755 86.4785 65.1217 79.41C66.0147 75.3279 66.8044 71.2766 67.2386 67.1204C67.9321 60.4832 76.6852 57.5607 81.4686 54.3017C86.8167 50.6579 86.3609 46.8801 91.7001 46.5398C111.249 45.2941 126.634 42.836 143.916 33.3682C159.395 24.8884 176.561 18.7759 193.545 13.9636C201.968 11.577 210.483 10.0805 219.3 10.8472C232.032 11.9543 245.167 11.3578 257.933 12.9052C259.876 13.1407 259.117 14.3302 259.285 15.8453C259.694 19.5214 267.501 20.2905 270.105 21.1375C272.511 21.9203 273.359 23.5646 275.573 24.6068C283.125 28.1604 291.792 29.1093 299.623 31.957C304.198 33.6207 308.165 36.5372 313.03 37.2491C327.9 39.4252 343.134 39.1452 358.072 41.0125C366.647 42.0843 363.892 40.9497 365.481 45.7166C366.891 49.9464 376.412 50.5186 379.946 51.3616C385.958 52.7956 384.039 57.1585 387.767 62.0635C391.755 67.3104 383.356 72.0663 382.298 77.7048C381.8 80.3648 382.272 83.0863 382.004 85.7606C381.673 89.0746 375.788 90.5908 373.419 92.17C366.113 97.0408 387.957 105.305 383.886 106.87C380.268 108.262 370.436 110.257 369.362 114.75C368.736 117.368 372.194 118.223 371.832 120.277C371.267 123.478 370.327 127.713 368.362 130.332C360.753 140.479 386.796 149.097 390.06 154.735C391.023 156.399 386.893 158.731 386.65 160.615C386.461 162.08 388.786 165.358 387.943 166.378C385.687 169.11 382.264 170.752 380.24 173.787C376.504 179.391 383.592 184.843 383.592 190.31C383.592 198.197 359.216 192.399 362.776 205.305C363.833 209.136 364.641 214.715 361.777 217.653C353.975 225.654 344.998 232.358 337.256 240.468C334.173 243.699 336.531 248.228 333.963 251.758C327.937 260.045 339.211 265.949 336.257 273.926C334.795 277.873 331.087 279.873 330.435 284.334C329.621 289.911 329.916 294.39 327.73 299.74C326.355 303.108 320.763 308.47 317.146 309.031C309.405 310.232 300.133 309.649 292.449 308.796C287.019 308.192 261.19 305.446 260.402 297.565C259.981 293.353 259.791 288.097 260.344 283.864C260.929 279.379 265.412 276.968 267.753 273.75C271.523 268.566 269.455 263.929 267.517 258.697C266.454 255.825 262.659 253.953 260.814 251.582C259.285 249.616 259.548 247.742 258.227 245.76" stroke="#FF0000" stroke-width="2" stroke-linecap="square"/>
</svg>
