<svg width="208" height="154" viewBox="0 0 208 154" fill="none" xmlns="http://www.w3.org/2000/svg">
<path d="M104.275 30.2617C104.275 31.0755 103.934 31.8405 103.25 32.5566C102.599 33.2728 101.736 33.9238 100.662 34.5098C99.6204 35.0957 98.4486 35.6165 97.1465 36.0723C95.8444 36.4954 94.5586 36.8535 93.2891 37.1465C92.0195 37.472 90.8151 37.7161 89.6758 37.8789C88.569 38.0417 87.6901 38.123 87.0391 38.123C86.4206 38.123 85.7533 38.0579 85.0371 37.9277C84.3535 37.8301 83.7839 37.5859 83.3281 37.1953C83.0677 37 82.8398 36.5605 82.6445 35.877C82.4492 35.1934 82.2539 34.3796 82.0586 33.4355C81.8958 32.4915 81.7493 31.4824 81.6191 30.4082C81.4889 29.3014 81.375 28.2272 81.2773 27.1855C81.2122 26.1439 81.1471 25.1836 81.082 24.3047C81.0495 23.4258 81.0332 22.7422 81.0332 22.2539C81.0332 21.4401 81.0495 20.4635 81.082 19.3242C81.1471 18.1523 81.2285 16.9154 81.3262 15.6133C81.4238 14.2786 81.554 12.9277 81.7168 11.5605C81.8796 10.1934 82.0586 8.90755 82.2539 7.70312C82.4818 6.46615 82.7422 5.35938 83.0352 4.38281C83.3607 3.40625 83.7025 2.64128 84.0605 2.08789C84.679 1.20898 85.4603 0.769531 86.4043 0.769531C87.0553 0.769531 87.6087 0.997396 88.0645 1.45312C88.5202 1.8763 88.8783 2.44596 89.1387 3.16211C89.4316 3.8457 89.6432 4.62695 89.7734 5.50586C89.9362 6.35221 90.0501 7.19857 90.1152 8.04492C90.1803 8.89128 90.2129 9.67253 90.2129 10.3887C90.2129 11.1048 90.2129 11.6745 90.2129 12.0977C90.2129 14.6367 90.1478 17.1595 90.0176 19.666C89.9199 22.14 89.8711 24.6465 89.8711 27.1855V29.0898C91.3359 28.6341 92.931 28.2109 94.6562 27.8203C96.3815 27.3971 98.0254 27.1855 99.5879 27.1855C100.141 27.1855 100.695 27.2181 101.248 27.2832C101.834 27.3483 102.339 27.4948 102.762 27.7227C103.217 27.918 103.576 28.2272 103.836 28.6504C104.129 29.041 104.275 29.5781 104.275 30.2617ZM126.248 30.1152C126.248 30.7012 126.215 31.4661 126.15 32.4102C126.118 33.3542 125.988 34.2819 125.76 35.1934C125.532 36.0723 125.174 36.8372 124.686 37.4883C124.197 38.1393 123.514 38.4648 122.635 38.4648C121.43 38.4648 120.503 38.0742 119.852 37.293C119.201 36.5117 118.891 35.5352 118.924 34.3633C117.882 35.2747 116.694 35.9909 115.359 36.5117C114.057 37.0326 112.723 37.293 111.355 37.293C110.411 37.293 109.516 37.0651 108.67 36.6094C107.824 36.1536 107.075 35.5677 106.424 34.8516C105.773 34.1354 105.252 33.3379 104.861 32.459C104.471 31.5475 104.275 30.6523 104.275 29.7734C104.275 28.2109 104.747 26.8438 105.691 25.6719C106.668 24.5 107.856 23.5072 109.256 22.6934C110.656 21.847 112.137 21.1797 113.699 20.6914C115.294 20.2031 116.71 19.8776 117.947 19.7148C117.947 19.5521 117.947 19.4056 117.947 19.2754C117.98 19.1452 117.996 18.9987 117.996 18.8359C117.996 17.8268 117.719 17.013 117.166 16.3945C116.613 15.776 115.831 15.4668 114.822 15.4668C114.008 15.4668 113.309 15.6133 112.723 15.9062C112.137 16.1667 111.583 16.4759 111.062 16.834C110.542 17.1595 110.021 17.4688 109.5 17.7617C108.979 18.0221 108.393 18.1523 107.742 18.1523C107.026 18.1523 106.408 17.9245 105.887 17.4688C105.398 17.013 105.154 16.4271 105.154 15.7109C105.154 14.6367 105.464 13.6602 106.082 12.7812C106.733 11.9023 107.531 11.1699 108.475 10.584C109.451 9.96549 110.493 9.49349 111.6 9.16797C112.739 8.8099 113.781 8.63086 114.725 8.63086C115.604 8.63086 116.482 8.74479 117.361 8.97266C118.24 9.16797 119.07 9.49349 119.852 9.94922C120.633 10.3724 121.333 10.9095 121.951 11.5605C122.602 12.179 123.123 12.9115 123.514 13.7578C124.1 14.9622 124.572 16.248 124.93 17.6152C125.288 18.9499 125.564 20.3333 125.76 21.7656C125.955 23.1654 126.085 24.5814 126.15 26.0137C126.215 27.4134 126.248 28.7806 126.248 30.1152ZM118.436 28.5527L118.289 25.2324C118.224 25.2324 118.159 25.2324 118.094 25.2324C118.029 25.1999 117.964 25.1836 117.898 25.1836C117.475 25.1836 116.938 25.2975 116.287 25.5254C115.669 25.7207 115.066 26.0137 114.48 26.4043C113.895 26.7624 113.39 27.1693 112.967 27.625C112.576 28.0807 112.381 28.5527 112.381 29.041C112.381 29.4967 112.544 29.806 112.869 29.9688C113.195 30.1315 113.569 30.2129 113.992 30.2129C114.708 30.2129 115.473 30.0339 116.287 29.6758C117.101 29.2852 117.817 28.9108 118.436 28.5527Z" fill="#80E0FF"/>
<path d="M19.9004 51.7461C19.9004 52.9831 19.4772 54.1061 18.6309 55.1152C17.7845 56.1243 16.7428 57.0358 15.5059 57.8496C14.3014 58.6309 13.0319 59.3145 11.6973 59.9004C10.3626 60.4863 9.20703 60.9746 8.23047 61.3652C8.23047 62.0488 8.21419 62.7487 8.18164 63.4648C8.14909 64.181 8.10026 64.8971 8.03516 65.6133C9.07682 65.0924 10.2487 64.6042 11.5508 64.1484C12.8529 63.6927 14.0898 63.4648 15.2617 63.4648C16.2057 63.4648 16.9707 63.6602 17.5566 64.0508C18.1751 64.4414 18.4844 65.125 18.4844 66.1016C18.4844 67.1758 18.0938 68.1361 17.3125 68.9824C16.5638 69.8288 15.6523 70.5775 14.5781 71.2285C13.5039 71.8796 12.3809 72.4329 11.209 72.8887C10.0371 73.3444 9.04427 73.7025 8.23047 73.9629C8.23047 75.0371 8.21419 76.1113 8.18164 77.1855C8.14909 78.2272 8.10026 79.2689 8.03516 80.3105C8.0026 80.8314 7.9375 81.4824 7.83984 82.2637C7.77474 83.0449 7.61198 83.8099 7.35156 84.5586C7.1237 85.2747 6.7819 85.9095 6.32617 86.4629C5.87044 86.9837 5.28451 87.2441 4.56836 87.2441C3.88477 87.2441 3.29883 86.9186 2.81055 86.2676C2.32227 85.584 1.89909 84.7214 1.54102 83.6797C1.21549 82.638 0.938802 81.4824 0.710938 80.2129C0.515625 78.9108 0.352865 77.6413 0.222656 76.4043C0.125 75.1673 0.0598958 74.028 0.0273438 72.9863C0.0273438 71.9447 0.0273438 71.1471 0.0273438 70.5938C0.0273438 70.1706 0.0273438 69.5521 0.0273438 68.7383C0.0598958 67.8919 0.0761719 66.9642 0.0761719 65.9551C0.108724 64.946 0.141276 63.888 0.173828 62.7812C0.238932 61.6745 0.304036 60.6328 0.369141 59.6562C0.434245 58.6471 0.515625 57.7682 0.613281 57.0195C0.74349 56.2383 0.889974 55.6686 1.05273 55.3105C1.41081 54.5944 2.25716 53.8945 3.5918 53.2109C4.95898 52.4948 6.47266 51.8763 8.13281 51.3555C9.79297 50.8021 11.4043 50.3626 12.9668 50.0371C14.5618 49.679 15.7826 49.5 16.6289 49.5C17.0195 49.5 17.3939 49.5326 17.752 49.5977C18.1426 49.6302 18.5007 49.7279 18.8262 49.8906C19.1517 50.0534 19.4121 50.2812 19.6074 50.5742C19.8027 50.8672 19.9004 51.2578 19.9004 51.7461ZM40.8965 80.1152C40.8965 80.7012 40.8639 81.4661 40.7988 82.4102C40.7663 83.3542 40.6361 84.2819 40.4082 85.1934C40.1803 86.0723 39.8223 86.8372 39.334 87.4883C38.8457 88.1393 38.1621 88.4648 37.2832 88.4648C36.0788 88.4648 35.151 88.0742 34.5 87.293C33.849 86.5117 33.5397 85.5352 33.5723 84.3633C32.5306 85.2747 31.3424 85.9909 30.0078 86.5117C28.7057 87.0326 27.3711 87.293 26.0039 87.293C25.0599 87.293 24.1647 87.0651 23.3184 86.6094C22.472 86.1536 21.7233 85.5677 21.0723 84.8516C20.4212 84.1354 19.9004 83.3379 19.5098 82.459C19.1191 81.5475 18.9238 80.6523 18.9238 79.7734C18.9238 78.2109 19.3958 76.8438 20.3398 75.6719C21.3164 74.5 22.5046 73.5072 23.9043 72.6934C25.304 71.847 26.7852 71.1797 28.3477 70.6914C29.9427 70.2031 31.3587 69.8776 32.5957 69.7148C32.5957 69.5521 32.5957 69.4056 32.5957 69.2754C32.6283 69.1452 32.6445 68.9987 32.6445 68.8359C32.6445 67.8268 32.3678 67.013 31.8145 66.3945C31.2611 65.776 30.4798 65.4668 29.4707 65.4668C28.6569 65.4668 27.957 65.6133 27.3711 65.9062C26.7852 66.1667 26.2318 66.4759 25.7109 66.834C25.1901 67.1595 24.6693 67.4688 24.1484 67.7617C23.6276 68.0221 23.0417 68.1523 22.3906 68.1523C21.6745 68.1523 21.056 67.9245 20.5352 67.4688C20.0469 67.013 19.8027 66.4271 19.8027 65.7109C19.8027 64.6367 20.112 63.6602 20.7305 62.7812C21.3815 61.9023 22.179 61.1699 23.123 60.584C24.0996 59.9655 25.1413 59.4935 26.248 59.168C27.3874 58.8099 28.429 58.6309 29.373 58.6309C30.252 58.6309 31.1309 58.7448 32.0098 58.9727C32.8887 59.168 33.7188 59.4935 34.5 59.9492C35.2812 60.3724 35.9811 60.9095 36.5996 61.5605C37.2507 62.179 37.7715 62.9115 38.1621 63.7578C38.748 64.9622 39.2201 66.248 39.5781 67.6152C39.9362 68.9499 40.2129 70.3333 40.4082 71.7656C40.6035 73.1654 40.7337 74.5814 40.7988 76.0137C40.8639 77.4134 40.8965 78.7806 40.8965 80.1152ZM33.084 78.5527L32.9375 75.2324C32.8724 75.2324 32.8073 75.2324 32.7422 75.2324C32.6771 75.1999 32.612 75.1836 32.5469 75.1836C32.1237 75.1836 31.5866 75.2975 30.9355 75.5254C30.3171 75.7207 29.7148 76.0137 29.1289 76.4043C28.543 76.7624 28.0384 77.1693 27.6152 77.625C27.2246 78.0807 27.0293 78.5527 27.0293 79.041C27.0293 79.4967 27.1921 79.806 27.5176 79.9688C27.8431 80.1315 28.2174 80.2129 28.6406 80.2129C29.3568 80.2129 30.1217 80.0339 30.9355 79.6758C31.7493 79.2852 32.4655 78.9108 33.084 78.5527ZM66.9219 70.8867C66.9219 71.8307 66.8405 72.9049 66.6777 74.1094C66.5475 75.2812 66.3197 76.4857 65.9941 77.7227C65.7012 78.9596 65.2943 80.1641 64.7734 81.3359C64.2852 82.5078 63.6667 83.5658 62.918 84.5098C62.2018 85.4212 61.3555 86.1536 60.3789 86.707C59.4349 87.2604 58.3281 87.5371 57.0586 87.5371C55.724 87.5371 54.5033 87.2279 53.3965 86.6094C52.3223 85.9909 51.3945 85.1445 50.6133 84.0703C50.5156 84.9492 50.1576 85.7305 49.5391 86.4141C48.9206 87.0651 48.1393 87.3906 47.1953 87.3906C46.6419 87.3906 46.1699 87.1139 45.7793 86.5605C45.4212 86.0072 45.1283 85.3073 44.9004 84.4609C44.6725 83.582 44.4935 82.6217 44.3633 81.5801C44.2656 80.5384 44.2005 79.5293 44.168 78.5527C44.1354 77.5762 44.1191 76.6973 44.1191 75.916C44.1191 75.1348 44.1191 74.5814 44.1191 74.2559C44.1191 73.1491 44.1191 72.0423 44.1191 70.9355C44.1517 69.8288 44.1842 68.7057 44.2168 67.5664C44.2168 67.013 44.2005 66.1829 44.168 65.0762C44.168 63.9694 44.1842 62.7487 44.2168 61.4141C44.2493 60.0469 44.3145 58.6634 44.4121 57.2637C44.5423 55.8314 44.7539 54.5293 45.0469 53.3574C45.3398 52.1855 45.7467 51.2253 46.2676 50.4766C46.7884 49.7279 47.4557 49.3372 48.2695 49.3047C48.9206 49.3047 49.474 49.5326 49.9297 49.9883C50.3854 50.444 50.7598 51.0462 51.0527 51.7949C51.3783 52.5436 51.6224 53.39 51.7852 54.334C51.9805 55.2454 52.1107 56.1732 52.1758 57.1172C52.2734 58.0286 52.3223 58.9076 52.3223 59.7539C52.3548 60.5677 52.3711 61.235 52.3711 61.7559C52.3711 61.8535 52.3548 62.0814 52.3223 62.4395C52.3223 62.765 52.3223 63.123 52.3223 63.5137C52.3223 63.9043 52.3223 64.2624 52.3223 64.5879C52.3223 64.8809 52.3223 65.0436 52.3223 65.0762C52.6152 64.4577 53.0384 63.8555 53.5918 63.2695C54.1452 62.6836 54.7637 62.1628 55.4473 61.707C56.1309 61.2513 56.847 60.877 57.5957 60.584C58.3444 60.291 59.0605 60.1445 59.7441 60.1445C61.1113 60.1445 62.2507 60.5026 63.1621 61.2188C64.1061 61.9023 64.8548 62.7812 65.4082 63.8555C65.9616 64.9297 66.3522 66.1016 66.5801 67.3711C66.8079 68.6081 66.9219 69.7799 66.9219 70.8867ZM59.7441 72.3516C59.7441 71.9609 59.7116 71.5378 59.6465 71.082C59.6139 70.6263 59.5 70.2031 59.3047 69.8125C59.1419 69.4219 58.8978 69.0964 58.5723 68.8359C58.2793 68.5755 57.8887 68.4453 57.4004 68.4453C56.8796 68.4453 56.3587 68.5592 55.8379 68.7871C55.3496 69.015 54.8776 69.3079 54.4219 69.666C53.9661 70.0241 53.543 70.4147 53.1523 70.8379C52.7617 71.2285 52.4199 71.6191 52.127 72.0098L51.6387 76.3555C52.1595 77.1042 52.7943 77.7064 53.543 78.1621C54.2917 78.5853 55.138 78.7969 56.082 78.7969C56.7982 78.7969 57.3841 78.569 57.8398 78.1133C58.3281 77.6576 58.7025 77.1042 58.9629 76.4531C59.2559 75.7695 59.4512 75.0534 59.5488 74.3047C59.679 73.556 59.7441 72.9049 59.7441 72.3516ZM86.8438 68.7383C86.388 68.7708 85.9974 68.7383 85.6719 68.6406C85.3464 68.5104 85.0208 68.3802 84.6953 68.25C84.4023 68.1198 84.1094 68.0059 83.8164 67.9082C83.5234 67.778 83.1979 67.7292 82.8398 67.7617C82.1888 67.7943 81.6029 67.9733 81.082 68.2988C80.5938 68.6243 80.138 69.0312 79.7148 69.5195C79.3242 70.0078 78.9824 70.5612 78.6895 71.1797C78.3965 71.7656 78.1686 72.3516 78.0059 72.9375C77.9082 73.3281 77.8268 73.9303 77.7617 74.7441C77.7292 75.5254 77.7129 76.3717 77.7129 77.2832C77.6803 78.2272 77.6641 79.1224 77.6641 79.9688C77.6641 80.8151 77.6315 81.4824 77.5664 81.9707C77.5339 82.4915 77.4525 83.11 77.3223 83.8262C77.1921 84.5098 76.9805 85.1608 76.6875 85.7793C76.4271 86.3978 76.069 86.9186 75.6133 87.3418C75.1576 87.765 74.5716 87.9766 73.8555 87.9766C73.3021 87.9766 72.8138 87.8138 72.3906 87.4883C72 87.1628 71.6582 86.7396 71.3652 86.2188C71.1048 85.6654 70.877 85.0306 70.6816 84.3145C70.5189 83.5983 70.3887 82.8659 70.291 82.1172C70.1934 81.3359 70.112 80.5547 70.0469 79.7734C70.0143 78.9922 69.9818 78.2598 69.9492 77.5762C69.9492 76.86 69.9492 76.209 69.9492 75.623C69.9818 75.0371 69.998 74.5651 69.998 74.207C69.9655 73.0677 69.9004 71.9284 69.8027 70.7891C69.7376 69.6172 69.7051 68.4616 69.7051 67.3223C69.7051 66.6061 69.7376 65.8086 69.8027 64.9297C69.8678 64.0508 70.0469 63.237 70.3398 62.4883C70.6328 61.707 71.056 61.056 71.6094 60.5352C72.1953 60.0143 72.9928 59.7539 74.002 59.7539C74.5553 59.7539 75.0273 59.9329 75.418 60.291C75.8086 60.6491 76.1178 61.0885 76.3457 61.6094C76.6061 62.1302 76.8014 62.6836 76.9316 63.2695C77.0618 63.8555 77.1432 64.3926 77.1758 64.8809C77.957 63.6113 78.8359 62.5859 79.8125 61.8047C80.7891 60.9909 82.0586 60.5514 83.6211 60.4863C84.4023 60.4538 85.1673 60.5352 85.916 60.7305C86.6973 60.8932 87.3971 61.1862 88.0156 61.6094C88.6667 62 89.1875 62.5208 89.5781 63.1719C90.0013 63.8229 90.2292 64.5879 90.2617 65.4668C90.3268 66.5085 90.0176 67.306 89.334 67.8594C88.6504 68.4128 87.8203 68.7057 86.8438 68.7383ZM99.0508 52.918C99.0508 53.3737 98.9206 53.7806 98.6602 54.1387C98.4323 54.4967 98.123 54.8223 97.7324 55.1152C97.3418 55.3757 96.9186 55.5872 96.4629 55.75C96.0072 55.8802 95.584 55.9453 95.1934 55.9453C94.5423 55.9453 93.9727 55.7826 93.4844 55.457C92.9961 55.1315 92.752 54.627 92.752 53.9434C92.752 53.4551 92.8659 53.0319 93.0938 52.6738C93.3542 52.2832 93.6634 51.974 94.0215 51.7461C94.3796 51.4857 94.7865 51.2904 95.2422 51.1602C95.6979 51.0299 96.1374 50.9648 96.5605 50.9648C97.179 50.9648 97.7487 51.1113 98.2695 51.4043C98.7904 51.6973 99.0508 52.2018 99.0508 52.918ZM99.4414 69.5195C99.4414 69.9753 99.4414 70.4635 99.4414 70.9844C99.4414 71.4727 99.4251 71.9447 99.3926 72.4004C99.36 72.9538 99.3438 73.7025 99.3438 74.6465C99.3438 75.5579 99.3112 76.5508 99.2461 77.625C99.181 78.6992 99.0671 79.7897 98.9043 80.8965C98.7741 82.0033 98.5462 83.0124 98.2207 83.9238C97.8952 84.8353 97.4557 85.584 96.9023 86.1699C96.3815 86.7233 95.7142 87.0163 94.9004 87.0488C94.2819 87.0814 93.7611 86.8372 93.3379 86.3164C92.9147 85.7956 92.5566 85.1283 92.2637 84.3145C92.0033 83.4681 91.8079 82.5404 91.6777 81.5312C91.5475 80.4896 91.4499 79.4967 91.3848 78.5527C91.3197 77.5762 91.2871 76.681 91.2871 75.8672C91.2871 75.0534 91.2871 74.4512 91.2871 74.0605C91.2871 73.5397 91.2871 72.8073 91.2871 71.8633C91.2871 70.8867 91.3197 69.8451 91.3848 68.7383C91.4499 67.6315 91.5638 66.5085 91.7266 65.3691C91.9219 64.2298 92.1823 63.1882 92.5078 62.2441C92.8659 61.3001 93.3216 60.5352 93.875 59.9492C94.4284 59.3633 95.1283 59.0703 95.9746 59.0703C96.8535 59.0703 97.5208 59.5098 97.9766 60.3887C98.4323 61.2676 98.7741 62.293 99.002 63.4648C99.2298 64.6367 99.36 65.8086 99.3926 66.9805C99.4251 68.1198 99.4414 68.9661 99.4414 69.5195ZM125.613 64.2949C125.353 66.6712 125.092 69.0312 124.832 71.375C124.572 73.7188 124.393 76.0625 124.295 78.4062C124.132 81.1081 124.067 83.6634 124.1 86.0723C124.132 88.4811 124.148 91.0365 124.148 93.7383C124.148 94.3893 124.132 95.1868 124.1 96.1309C124.1 97.0749 123.986 97.9863 123.758 98.8652C123.53 99.7441 123.156 100.493 122.635 101.111C122.146 101.73 121.398 102.039 120.389 102.039C119.9 102.039 119.477 101.893 119.119 101.6C118.794 101.307 118.501 100.916 118.24 100.428C118.012 99.972 117.817 99.4512 117.654 98.8652C117.524 98.2793 117.41 97.6771 117.312 97.0586C117.15 95.7891 117.052 94.5195 117.02 93.25C117.02 92.013 117.02 91.1016 117.02 90.5156V86.707V83.9727C116.271 84.9492 115.294 85.6979 114.09 86.2188C112.918 86.707 111.746 86.9512 110.574 86.9512C109.109 86.9512 107.84 86.6094 106.766 85.9258C105.724 85.2096 104.861 84.3145 104.178 83.2402C103.494 82.1335 102.99 80.929 102.664 79.627C102.339 78.3249 102.176 77.0553 102.176 75.8184V75.5254C102.176 73.8327 102.436 72.0098 102.957 70.0566C103.478 68.071 104.243 66.2318 105.252 64.5391C106.294 62.8464 107.579 61.4466 109.109 60.3398C110.672 59.2005 112.479 58.6309 114.529 58.6309C115.636 58.6309 116.645 58.8587 117.557 59.3145C118.501 59.7702 119.168 60.5189 119.559 61.5605C119.819 60.8118 120.21 60.2096 120.73 59.7539C121.284 59.2656 121.984 59.0215 122.83 59.0215C123.904 59.0215 124.653 59.3796 125.076 60.0957C125.532 60.7793 125.76 61.5443 125.76 62.3906C125.76 62.7487 125.743 63.0742 125.711 63.3672C125.678 63.6602 125.646 63.9694 125.613 64.2949ZM114.383 65.4668C113.634 65.4668 112.934 65.776 112.283 66.3945C111.632 66.9805 111.062 67.7129 110.574 68.5918C110.086 69.4382 109.695 70.3496 109.402 71.3262C109.142 72.3027 109.012 73.1654 109.012 73.9141C109.012 74.3698 109.044 74.8581 109.109 75.3789C109.207 75.8997 109.337 76.4043 109.5 76.8926C109.695 77.3483 109.939 77.7389 110.232 78.0645C110.558 78.3574 110.965 78.5039 111.453 78.5039C111.876 78.5039 112.365 78.4062 112.918 78.2109C113.504 77.9831 114.074 77.7064 114.627 77.3809C115.18 77.0228 115.669 76.6322 116.092 76.209C116.515 75.7858 116.808 75.3789 116.971 74.9883C117.068 74.7604 117.15 74.4186 117.215 73.9629C117.28 73.5072 117.329 73.0352 117.361 72.5469C117.426 72.026 117.475 71.5215 117.508 71.0332C117.54 70.5449 117.557 70.1706 117.557 69.9102C117.557 69.5195 117.459 69.0801 117.264 68.5918C117.101 68.071 116.873 67.5827 116.58 67.127C116.287 66.6387 115.945 66.248 115.555 65.9551C115.164 65.6296 114.773 65.4668 114.383 65.4668ZM149.344 73.0352C149.344 74.8255 149.165 76.5996 148.807 78.3574C148.449 80.1152 147.846 81.694 147 83.0938C146.154 84.4609 145.014 85.5677 143.582 86.4141C142.182 87.2604 140.424 87.6836 138.309 87.6836C136.225 87.6836 134.484 87.2767 133.084 86.4629C131.684 85.6165 130.561 84.5098 129.715 83.1426C128.901 81.7754 128.315 80.2292 127.957 78.5039C127.632 76.7786 127.469 75.0208 127.469 73.2305C127.469 71.2773 127.697 69.3405 128.152 67.4199C128.25 66.8991 128.429 66.1829 128.689 65.2715C128.982 64.3275 129.34 63.416 129.764 62.5371C130.219 61.6257 130.724 60.8444 131.277 60.1934C131.863 59.5423 132.498 59.2168 133.182 59.2168C133.833 59.2168 134.354 59.3958 134.744 59.7539C135.135 60.112 135.444 60.5677 135.672 61.1211C135.9 61.6419 136.046 62.2116 136.111 62.8301C136.176 63.416 136.209 63.9531 136.209 64.4414C136.209 65.1901 136.144 65.9225 136.014 66.6387C135.916 67.3548 135.802 68.071 135.672 68.7871C135.542 69.7637 135.411 70.7402 135.281 71.7168C135.184 72.6934 135.135 73.6699 135.135 74.6465C135.135 75.1348 135.151 75.6882 135.184 76.3066C135.249 76.8926 135.379 77.4622 135.574 78.0156C135.77 78.569 136.046 79.041 136.404 79.4316C136.762 79.7897 137.267 79.9688 137.918 79.9688C138.764 79.9688 139.432 79.7409 139.92 79.2852C140.441 78.8294 140.815 78.2598 141.043 77.5762C141.303 76.8926 141.466 76.1602 141.531 75.3789C141.596 74.5977 141.629 73.8815 141.629 73.2305C141.629 71.7982 141.531 70.3984 141.336 69.0312C141.141 67.6315 140.962 66.2155 140.799 64.7832C140.766 64.6204 140.75 64.3926 140.75 64.0996C140.75 63.6113 140.831 63.123 140.994 62.6348C141.157 62.1465 141.385 61.707 141.678 61.3164C141.971 60.9258 142.329 60.6165 142.752 60.3887C143.175 60.1283 143.647 59.998 144.168 59.998C144.884 59.998 145.519 60.2585 146.072 60.7793C146.626 61.2676 147.081 61.9186 147.439 62.7324C147.83 63.5137 148.139 64.4089 148.367 65.418C148.628 66.3945 148.823 67.3711 148.953 68.3477C149.116 69.2917 149.214 70.1868 149.246 71.0332C149.311 71.8796 149.344 72.5469 149.344 73.0352ZM172.781 78.3086C172.781 79.4154 172.423 80.5059 171.707 81.5801C171.023 82.6217 170.145 83.5658 169.07 84.4121C168.029 85.2259 166.906 85.8932 165.701 86.4141C164.497 86.9023 163.39 87.1465 162.381 87.1465C160.656 87.1465 159.109 86.7233 157.742 85.877C156.408 84.998 155.285 83.8913 154.373 82.5566C153.462 81.222 152.762 79.7572 152.273 78.1621C151.818 76.5345 151.59 74.9557 151.59 73.4258C151.59 71.7982 151.818 70.0566 152.273 68.2012C152.729 66.3457 153.413 64.6367 154.324 63.0742C155.268 61.5117 156.44 60.2096 157.84 59.168C159.272 58.1263 160.965 57.6055 162.918 57.6055C164.025 57.6055 165.083 57.8008 166.092 58.1914C167.101 58.5495 167.98 59.0703 168.729 59.7539C169.477 60.4375 170.079 61.2513 170.535 62.1953C170.991 63.1393 171.219 64.1973 171.219 65.3691C171.219 66.8991 170.893 68.3314 170.242 69.666C169.591 71.0007 168.729 72.1562 167.654 73.1328C166.58 74.1094 165.343 74.9069 163.943 75.5254C162.544 76.1113 161.111 76.4368 159.646 76.502C159.777 77.446 160.151 78.1296 160.77 78.5527C161.421 78.9759 162.186 79.1875 163.064 79.1875C163.715 79.1875 164.35 79.0247 164.969 78.6992C165.587 78.3737 166.189 78.0156 166.775 77.625C167.361 77.2018 167.931 76.8275 168.484 76.502C169.07 76.1764 169.656 76.0137 170.242 76.0137C170.893 76.0137 171.479 76.2253 172 76.6484C172.521 77.0716 172.781 77.625 172.781 78.3086ZM164.871 66.3457C164.871 65.9225 164.757 65.4831 164.529 65.0273C164.301 64.5716 163.943 64.3438 163.455 64.3438C162.739 64.3438 162.137 64.5391 161.648 64.9297C161.16 65.2878 160.753 65.7598 160.428 66.3457C160.102 66.8991 159.842 67.5013 159.646 68.1523C159.484 68.8034 159.386 69.4056 159.354 69.959C159.809 69.8613 160.346 69.7311 160.965 69.5684C161.616 69.4056 162.218 69.194 162.771 68.9336C163.357 68.6406 163.846 68.2826 164.236 67.8594C164.66 67.4362 164.871 66.9316 164.871 66.3457Z" fill="#8BFF96"/>
<path d="M207.254 80.1152C207.254 80.7012 207.221 81.4661 207.156 82.4102C207.124 83.3542 206.993 84.2819 206.766 85.1934C206.538 86.0723 206.18 86.8372 205.691 87.4883C205.203 88.1393 204.52 88.4648 203.641 88.4648C202.436 88.4648 201.508 88.0742 200.857 87.293C200.206 86.5117 199.897 85.5352 199.93 84.3633C198.888 85.2747 197.7 85.9909 196.365 86.5117C195.063 87.0326 193.729 87.293 192.361 87.293C191.417 87.293 190.522 87.0651 189.676 86.6094C188.829 86.1536 188.081 85.5677 187.43 84.8516C186.779 84.1354 186.258 83.3379 185.867 82.459C185.477 81.5475 185.281 80.6523 185.281 79.7734C185.281 78.2109 185.753 76.8438 186.697 75.6719C187.674 74.5 188.862 73.5072 190.262 72.6934C191.661 71.847 193.143 71.1797 194.705 70.6914C196.3 70.2031 197.716 69.8776 198.953 69.7148C198.953 69.5521 198.953 69.4056 198.953 69.2754C198.986 69.1452 199.002 68.9987 199.002 68.8359C199.002 67.8268 198.725 67.013 198.172 66.3945C197.618 65.776 196.837 65.4668 195.828 65.4668C195.014 65.4668 194.314 65.6133 193.729 65.9062C193.143 66.1667 192.589 66.4759 192.068 66.834C191.548 67.1595 191.027 67.4688 190.506 67.7617C189.985 68.0221 189.399 68.1523 188.748 68.1523C188.032 68.1523 187.413 67.9245 186.893 67.4688C186.404 67.013 186.16 66.4271 186.16 65.7109C186.16 64.6367 186.469 63.6602 187.088 62.7812C187.739 61.9023 188.536 61.1699 189.48 60.584C190.457 59.9655 191.499 59.4935 192.605 59.168C193.745 58.8099 194.786 58.6309 195.73 58.6309C196.609 58.6309 197.488 58.7448 198.367 58.9727C199.246 59.168 200.076 59.4935 200.857 59.9492C201.639 60.3724 202.339 60.9095 202.957 61.5605C203.608 62.179 204.129 62.9115 204.52 63.7578C205.105 64.9622 205.577 66.248 205.936 67.6152C206.294 68.9499 206.57 70.3333 206.766 71.7656C206.961 73.1654 207.091 74.5814 207.156 76.0137C207.221 77.4134 207.254 78.7806 207.254 80.1152ZM199.441 78.5527L199.295 75.2324C199.23 75.2324 199.165 75.2324 199.1 75.2324C199.035 75.1999 198.969 75.1836 198.904 75.1836C198.481 75.1836 197.944 75.2975 197.293 75.5254C196.674 75.7207 196.072 76.0137 195.486 76.4043C194.9 76.7624 194.396 77.1693 193.973 77.625C193.582 78.0807 193.387 78.5527 193.387 79.041C193.387 79.4967 193.549 79.806 193.875 79.9688C194.201 80.1315 194.575 80.2129 194.998 80.2129C195.714 80.2129 196.479 80.0339 197.293 79.6758C198.107 79.2852 198.823 78.9108 199.441 78.5527ZM200.564 54.4805C200.564 54.7409 200.451 54.9525 200.223 55.1152C200.027 55.2454 199.799 55.3105 199.539 55.3105C198.953 55.3105 198.335 55.1315 197.684 54.7734C197.065 54.3828 196.528 54.0573 196.072 53.7969C195.779 53.6016 195.454 53.39 195.096 53.1621C194.77 52.9342 194.445 52.6738 194.119 52.3809C193.826 52.0879 193.566 51.7786 193.338 51.4531C193.143 51.0951 193.045 50.737 193.045 50.3789C193.045 49.8906 193.224 49.4674 193.582 49.1094C193.94 48.7188 194.363 48.5234 194.852 48.5234C195.34 48.5234 195.91 48.7513 196.561 49.207C197.212 49.6302 197.83 50.151 198.416 50.7695C199.035 51.388 199.539 52.0391 199.93 52.7227C200.353 53.4062 200.564 53.9922 200.564 54.4805Z" fill="#E498FF"/>
<path d="M70.3887 102.918C70.3887 103.374 70.2585 103.781 69.998 104.139C69.7702 104.497 69.4609 104.822 69.0703 105.115C68.6797 105.376 68.2565 105.587 67.8008 105.75C67.3451 105.88 66.9219 105.945 66.5312 105.945C65.8802 105.945 65.3105 105.783 64.8223 105.457C64.334 105.132 64.0898 104.627 64.0898 103.943C64.0898 103.455 64.2038 103.032 64.4316 102.674C64.6921 102.283 65.0013 101.974 65.3594 101.746C65.7174 101.486 66.1243 101.29 66.5801 101.16C67.0358 101.03 67.4753 100.965 67.8984 100.965C68.5169 100.965 69.0866 101.111 69.6074 101.404C70.1283 101.697 70.3887 102.202 70.3887 102.918ZM70.7793 119.52C70.7793 119.975 70.7793 120.464 70.7793 120.984C70.7793 121.473 70.763 121.945 70.7305 122.4C70.6979 122.954 70.6816 123.702 70.6816 124.646C70.6816 125.558 70.6491 126.551 70.584 127.625C70.5189 128.699 70.4049 129.79 70.2422 130.896C70.112 132.003 69.8841 133.012 69.5586 133.924C69.2331 134.835 68.7936 135.584 68.2402 136.17C67.7194 136.723 67.0521 137.016 66.2383 137.049C65.6198 137.081 65.099 136.837 64.6758 136.316C64.2526 135.796 63.8945 135.128 63.6016 134.314C63.3411 133.468 63.1458 132.54 63.0156 131.531C62.8854 130.49 62.7878 129.497 62.7227 128.553C62.6576 127.576 62.625 126.681 62.625 125.867C62.625 125.053 62.625 124.451 62.625 124.061C62.625 123.54 62.625 122.807 62.625 121.863C62.625 120.887 62.6576 119.845 62.7227 118.738C62.7878 117.632 62.9017 116.508 63.0645 115.369C63.2598 114.23 63.5202 113.188 63.8457 112.244C64.2038 111.3 64.6595 110.535 65.2129 109.949C65.7663 109.363 66.4661 109.07 67.3125 109.07C68.1914 109.07 68.8587 109.51 69.3145 110.389C69.7702 111.268 70.112 112.293 70.3398 113.465C70.5677 114.637 70.6979 115.809 70.7305 116.98C70.763 118.12 70.7793 118.966 70.7793 119.52ZM95.291 104.871C95.291 107.247 95.1934 109.607 94.998 111.951C94.8353 114.295 94.7539 116.655 94.7539 119.031C94.7539 120.952 94.8027 122.856 94.9004 124.744C95.0306 126.632 95.0957 128.536 95.0957 130.457C95.0957 130.978 95.0794 131.613 95.0469 132.361C95.0143 133.077 94.9004 133.777 94.7051 134.461C94.5423 135.145 94.2493 135.73 93.8262 136.219C93.4355 136.707 92.8659 136.951 92.1172 136.951C91.1406 136.951 90.3268 136.593 89.6758 135.877C89.0573 135.128 88.6667 134.298 88.5039 133.387C87.8854 134.559 86.9902 135.551 85.8184 136.365C84.6465 137.179 83.377 137.586 82.0098 137.586C80.5449 137.586 79.2754 137.081 78.2012 136.072C77.1595 135.063 76.2806 133.842 75.5645 132.41C74.8809 130.978 74.36 129.48 74.002 127.918C73.6764 126.355 73.5137 125.005 73.5137 123.865C73.5137 123.051 73.5625 122.124 73.6602 121.082C73.7578 120.04 73.9206 118.982 74.1484 117.908C74.4089 116.834 74.7344 115.792 75.125 114.783C75.5156 113.742 76.0039 112.814 76.5898 112C77.2083 111.186 77.9245 110.535 78.7383 110.047C79.5846 109.559 80.5449 109.314 81.6191 109.314C82.791 109.314 83.9141 109.656 84.9883 110.34C86.0625 111.023 86.8763 111.87 87.4297 112.879L87.8691 105.115C87.9017 104.497 87.9505 103.781 88.0156 102.967C88.0807 102.12 88.2109 101.323 88.4062 100.574C88.6341 99.8255 88.9759 99.1908 89.4316 98.6699C89.8874 98.1491 90.5547 97.8887 91.4336 97.8887C92.3776 97.8887 93.11 98.1165 93.6309 98.5723C94.1517 99.028 94.526 99.6139 94.7539 100.33C95.0143 101.014 95.1608 101.762 95.1934 102.576C95.2585 103.39 95.291 104.155 95.291 104.871ZM87.332 126.551C87.332 125.802 87.3158 125.07 87.2832 124.354C87.2507 123.637 87.2507 122.905 87.2832 122.156C87.0879 121.733 86.86 121.277 86.5996 120.789C86.3392 120.268 86.0137 119.796 85.623 119.373C85.265 118.917 84.8581 118.543 84.4023 118.25C83.9466 117.957 83.4583 117.811 82.9375 117.811C82.3516 117.811 81.8796 117.99 81.5215 118.348C81.1634 118.706 80.903 119.145 80.7402 119.666C80.5775 120.154 80.4635 120.691 80.3984 121.277C80.3659 121.863 80.3496 122.368 80.3496 122.791C80.3496 123.182 80.3822 123.768 80.4473 124.549C80.5124 125.298 80.6263 126.062 80.7891 126.844C80.9844 127.625 81.2448 128.309 81.5703 128.895C81.8958 129.48 82.3353 129.773 82.8887 129.773C83.3118 129.773 83.735 129.692 84.1582 129.529C84.5814 129.334 84.972 129.106 85.3301 128.846C85.7207 128.553 86.0788 128.243 86.4043 127.918C86.7624 127.56 87.0716 127.234 87.332 126.941V126.551ZM118.973 128.309C118.973 129.415 118.615 130.506 117.898 131.58C117.215 132.622 116.336 133.566 115.262 134.412C114.22 135.226 113.097 135.893 111.893 136.414C110.688 136.902 109.581 137.146 108.572 137.146C106.847 137.146 105.301 136.723 103.934 135.877C102.599 134.998 101.476 133.891 100.564 132.557C99.653 131.222 98.9531 129.757 98.4648 128.162C98.0091 126.535 97.7812 124.956 97.7812 123.426C97.7812 121.798 98.0091 120.057 98.4648 118.201C98.9206 116.346 99.6042 114.637 100.516 113.074C101.46 111.512 102.632 110.21 104.031 109.168C105.464 108.126 107.156 107.605 109.109 107.605C110.216 107.605 111.274 107.801 112.283 108.191C113.292 108.549 114.171 109.07 114.92 109.754C115.669 110.438 116.271 111.251 116.727 112.195C117.182 113.139 117.41 114.197 117.41 115.369C117.41 116.899 117.085 118.331 116.434 119.666C115.783 121.001 114.92 122.156 113.846 123.133C112.771 124.109 111.535 124.907 110.135 125.525C108.735 126.111 107.303 126.437 105.838 126.502C105.968 127.446 106.342 128.13 106.961 128.553C107.612 128.976 108.377 129.188 109.256 129.188C109.907 129.188 110.542 129.025 111.16 128.699C111.779 128.374 112.381 128.016 112.967 127.625C113.553 127.202 114.122 126.827 114.676 126.502C115.262 126.176 115.848 126.014 116.434 126.014C117.085 126.014 117.671 126.225 118.191 126.648C118.712 127.072 118.973 127.625 118.973 128.309ZM111.062 116.346C111.062 115.923 110.949 115.483 110.721 115.027C110.493 114.572 110.135 114.344 109.646 114.344C108.93 114.344 108.328 114.539 107.84 114.93C107.352 115.288 106.945 115.76 106.619 116.346C106.294 116.899 106.033 117.501 105.838 118.152C105.675 118.803 105.577 119.406 105.545 119.959C106.001 119.861 106.538 119.731 107.156 119.568C107.807 119.406 108.41 119.194 108.963 118.934C109.549 118.641 110.037 118.283 110.428 117.859C110.851 117.436 111.062 116.932 111.062 116.346ZM113.797 99.0117C113.797 99.3698 113.699 99.7279 113.504 100.086C113.309 100.411 113.064 100.721 112.771 101.014C112.511 101.307 112.218 101.583 111.893 101.844C111.567 102.072 111.274 102.283 111.014 102.479C110.786 102.641 110.525 102.837 110.232 103.064C109.972 103.26 109.679 103.455 109.354 103.65C109.061 103.813 108.751 103.96 108.426 104.09C108.133 104.22 107.84 104.285 107.547 104.285C107.286 104.285 107.059 104.22 106.863 104.09C106.668 103.927 106.57 103.699 106.57 103.406C106.57 102.918 106.749 102.332 107.107 101.648C107.498 100.932 107.97 100.249 108.523 99.5977C109.077 98.9141 109.663 98.3444 110.281 97.8887C110.9 97.4004 111.469 97.1562 111.99 97.1562C112.446 97.1562 112.853 97.3516 113.211 97.7422C113.602 98.1003 113.797 98.5234 113.797 99.0117ZM141.385 128.309C141.385 129.415 141.027 130.506 140.311 131.58C139.627 132.622 138.748 133.566 137.674 134.412C136.632 135.226 135.509 135.893 134.305 136.414C133.1 136.902 131.993 137.146 130.984 137.146C129.259 137.146 127.713 136.723 126.346 135.877C125.011 134.998 123.888 133.891 122.977 132.557C122.065 131.222 121.365 129.757 120.877 128.162C120.421 126.535 120.193 124.956 120.193 123.426C120.193 121.798 120.421 120.057 120.877 118.201C121.333 116.346 122.016 114.637 122.928 113.074C123.872 111.512 125.044 110.21 126.443 109.168C127.876 108.126 129.568 107.605 131.521 107.605C132.628 107.605 133.686 107.801 134.695 108.191C135.704 108.549 136.583 109.07 137.332 109.754C138.081 110.438 138.683 111.251 139.139 112.195C139.594 113.139 139.822 114.197 139.822 115.369C139.822 116.899 139.497 118.331 138.846 119.666C138.195 121.001 137.332 122.156 136.258 123.133C135.184 124.109 133.947 124.907 132.547 125.525C131.147 126.111 129.715 126.437 128.25 126.502C128.38 127.446 128.755 128.13 129.373 128.553C130.024 128.976 130.789 129.188 131.668 129.188C132.319 129.188 132.954 129.025 133.572 128.699C134.191 128.374 134.793 128.016 135.379 127.625C135.965 127.202 136.535 126.827 137.088 126.502C137.674 126.176 138.26 126.014 138.846 126.014C139.497 126.014 140.083 126.225 140.604 126.648C141.124 127.072 141.385 127.625 141.385 128.309ZM133.475 116.346C133.475 115.923 133.361 115.483 133.133 115.027C132.905 114.572 132.547 114.344 132.059 114.344C131.342 114.344 130.74 114.539 130.252 114.93C129.764 115.288 129.357 115.76 129.031 116.346C128.706 116.899 128.445 117.501 128.25 118.152C128.087 118.803 127.99 119.406 127.957 119.959C128.413 119.861 128.95 119.731 129.568 119.568C130.219 119.406 130.822 119.194 131.375 118.934C131.961 118.641 132.449 118.283 132.84 117.859C133.263 117.436 133.475 116.932 133.475 116.346ZM157.645 110.145C157.645 111.089 157.319 111.788 156.668 112.244C156.049 112.7 155.35 113.139 154.568 113.562C153.787 113.953 153.071 114.425 152.42 114.979C151.801 115.532 151.492 116.362 151.492 117.469C151.492 118.055 151.622 118.559 151.883 118.982C152.176 119.406 152.518 119.796 152.908 120.154C153.331 120.48 153.787 120.822 154.275 121.18C154.764 121.538 155.203 121.945 155.594 122.4C156.017 122.856 156.359 123.41 156.619 124.061C156.912 124.712 157.059 125.509 157.059 126.453C157.059 127.82 156.701 129.171 155.984 130.506C155.301 131.808 154.406 132.98 153.299 134.021C152.225 135.031 151.004 135.844 149.637 136.463C148.27 137.081 146.919 137.391 145.584 137.391C145.031 137.391 144.477 137.342 143.924 137.244C143.37 137.179 142.866 137.033 142.41 136.805C141.987 136.577 141.629 136.268 141.336 135.877C141.043 135.454 140.896 134.917 140.896 134.266C140.896 133.354 141.076 132.654 141.434 132.166C141.792 131.645 142.247 131.238 142.801 130.945C143.354 130.652 143.94 130.424 144.559 130.262C145.21 130.099 145.812 129.904 146.365 129.676C146.919 129.415 147.374 129.09 147.732 128.699C148.09 128.309 148.27 127.755 148.27 127.039C148.27 126.355 147.993 125.656 147.439 124.939C146.919 124.191 146.333 123.41 145.682 122.596C145.031 121.749 144.428 120.854 143.875 119.91C143.354 118.966 143.094 117.924 143.094 116.785C143.094 115.385 143.37 114.1 143.924 112.928C144.51 111.723 145.275 110.682 146.219 109.803C147.195 108.924 148.302 108.24 149.539 107.752C150.776 107.231 152.078 106.971 153.445 106.971C153.966 106.971 154.471 107.02 154.959 107.117C155.48 107.215 155.936 107.394 156.326 107.654C156.717 107.882 157.026 108.208 157.254 108.631C157.514 109.021 157.645 109.526 157.645 110.145Z" fill="#FFDA7A"/>
<path d="M36.4746 153.17C35.8926 153.17 35.3691 153.086 34.9043 152.918C34.4434 152.746 34.0508 152.49 33.7266 152.15C33.4023 151.807 33.1543 151.377 32.9824 150.861C32.8105 150.346 32.7246 149.742 32.7246 149.051V144.715H35.3496V149.062C35.3496 149.449 35.3691 149.793 35.4082 150.094C35.4473 150.395 35.5137 150.65 35.6074 150.861C35.7012 151.068 35.8262 151.227 35.9824 151.336C36.1387 151.445 36.334 151.5 36.5684 151.5C36.8262 151.5 37.0332 151.445 37.1895 151.336C37.3496 151.227 37.4727 151.068 37.5586 150.861C37.6484 150.65 37.709 150.395 37.7402 150.094C37.7715 149.793 37.7871 149.449 37.7871 149.062V144.715H39.9785V149.051C39.9785 149.746 39.9102 150.352 39.7734 150.867C39.6367 151.383 39.4238 151.812 39.1348 152.156C38.8496 152.496 38.4863 152.75 38.0449 152.918C37.6074 153.086 37.084 153.17 36.4746 153.17ZM41.9004 146.678H44.4316C44.4082 146.811 44.3848 146.982 44.3613 147.193C44.3379 147.4 44.3262 147.615 44.3262 147.838C44.459 147.639 44.625 147.459 44.8242 147.299C45.0273 147.135 45.25 146.996 45.4922 146.883C45.7344 146.766 45.9902 146.676 46.2598 146.613C46.5332 146.551 46.8086 146.52 47.0859 146.52C47.3906 146.52 47.6797 146.566 47.9531 146.66C48.2266 146.75 48.4668 146.895 48.6738 147.094C48.8809 147.293 49.0449 147.553 49.166 147.873C49.2871 148.189 49.3477 148.574 49.3477 149.027V153H46.8164V149.396C46.8164 149.154 46.791 148.953 46.7402 148.793C46.6895 148.633 46.6191 148.506 46.5293 148.412C46.4395 148.318 46.332 148.252 46.207 148.213C46.0859 148.174 45.9531 148.154 45.8086 148.154C45.6523 148.154 45.498 148.182 45.3457 148.236C45.1934 148.287 45.0547 148.357 44.9297 148.447C44.8047 148.537 44.6973 148.643 44.6074 148.764C44.5176 148.885 44.459 149.014 44.4316 149.15V153H41.9004V146.678ZM55.2832 146.678H57.8438C57.8086 146.791 57.7793 146.896 57.7559 146.994C57.7324 147.088 57.7148 147.182 57.7031 147.275C57.6914 147.369 57.6816 147.465 57.6738 147.562C57.6699 147.656 57.668 147.758 57.668 147.867C57.7734 147.691 57.9102 147.521 58.0781 147.357C58.2461 147.193 58.4336 147.051 58.6406 146.93C58.8516 146.805 59.0742 146.705 59.3086 146.631C59.5469 146.557 59.7871 146.52 60.0293 146.52C60.2207 146.52 60.4082 146.547 60.5918 146.602C60.7793 146.656 60.957 146.738 61.125 146.848C61.293 146.957 61.4473 147.092 61.5879 147.252C61.7285 147.412 61.8496 147.6 61.9512 147.814C62.0723 147.627 62.2285 147.455 62.4199 147.299C62.6152 147.139 62.8301 147.002 63.0645 146.889C63.2988 146.771 63.5469 146.682 63.8086 146.619C64.0742 146.553 64.3379 146.52 64.5996 146.52C65.0215 146.52 65.3789 146.58 65.6719 146.701C65.9688 146.822 66.207 146.994 66.3867 147.217C66.5703 147.439 66.7031 147.707 66.7852 148.02C66.8672 148.332 66.9082 148.678 66.9082 149.057V153H64.377V149.426C64.377 149.312 64.3633 149.184 64.3359 149.039C64.3125 148.891 64.2656 148.752 64.1953 148.623C64.125 148.49 64.0273 148.379 63.9023 148.289C63.7812 148.199 63.6211 148.154 63.4219 148.154C63.2852 148.154 63.1562 148.188 63.0352 148.254C62.9141 148.32 62.8066 148.408 62.7129 148.518C62.6191 148.627 62.5449 148.752 62.4902 148.893C62.4355 149.033 62.4082 149.178 62.4082 149.326V153H59.877V149.426C59.877 149.266 59.8613 149.109 59.8301 148.957C59.8027 148.805 59.7539 148.67 59.6836 148.553C59.6133 148.432 59.5176 148.336 59.3965 148.266C59.2754 148.191 59.123 148.154 58.9395 148.154C58.8105 148.154 58.6777 148.18 58.541 148.23C58.4082 148.277 58.2871 148.344 58.1777 148.43C58.0723 148.512 57.9844 148.611 57.9141 148.729C57.8477 148.846 57.8145 148.973 57.8145 149.109V153H55.2832V146.678ZM71.9004 153.17C71.4395 153.17 71.0293 153.127 70.6699 153.041C70.3105 152.955 69.9961 152.836 69.7266 152.684C69.457 152.531 69.2266 152.352 69.0352 152.145C68.8477 151.934 68.6953 151.705 68.5781 151.459C68.4609 151.213 68.375 150.953 68.3203 150.68C68.2695 150.406 68.2441 150.129 68.2441 149.848C68.2441 149.57 68.2695 149.297 68.3203 149.027C68.375 148.754 68.4609 148.494 68.5781 148.248C68.6953 147.998 68.8477 147.77 69.0352 147.562C69.2227 147.352 69.4512 147.17 69.7207 147.018C69.9941 146.861 70.3105 146.74 70.6699 146.654C71.0293 146.564 71.4395 146.52 71.9004 146.52C72.3613 146.52 72.7715 146.564 73.1309 146.654C73.4902 146.74 73.8047 146.861 74.0742 147.018C74.3477 147.17 74.5781 147.352 74.7656 147.562C74.9531 147.77 75.1055 147.998 75.2227 148.248C75.3398 148.494 75.4238 148.754 75.4746 149.027C75.5293 149.297 75.5566 149.57 75.5566 149.848C75.5566 150.129 75.5293 150.406 75.4746 150.68C75.4238 150.953 75.3398 151.213 75.2227 151.459C75.1055 151.705 74.9512 151.934 74.7598 152.145C74.5723 152.352 74.3438 152.531 74.0742 152.684C73.8047 152.836 73.4902 152.955 73.1309 153.041C72.7715 153.127 72.3613 153.17 71.9004 153.17ZM70.7754 149.848C70.7754 150.059 70.7949 150.266 70.834 150.469C70.873 150.668 70.9355 150.848 71.0215 151.008C71.1113 151.164 71.2266 151.291 71.3672 151.389C71.5117 151.482 71.6895 151.529 71.9004 151.529C72.1113 151.529 72.2871 151.482 72.4277 151.389C72.5723 151.291 72.6875 151.164 72.7734 151.008C72.8633 150.848 72.9277 150.668 72.9668 150.469C73.0059 150.266 73.0254 150.059 73.0254 149.848C73.0254 149.637 73.0059 149.432 72.9668 149.232C72.9277 149.029 72.8633 148.85 72.7734 148.693C72.6875 148.533 72.5723 148.404 72.4277 148.307C72.2871 148.209 72.1113 148.16 71.9004 148.16C71.6895 148.16 71.5117 148.209 71.3672 148.307C71.2266 148.404 71.1113 148.533 71.0215 148.693C70.9355 148.85 70.873 149.029 70.834 149.232C70.7949 149.432 70.7754 149.637 70.7754 149.848ZM76.9395 146.678H79.4707C79.4473 146.811 79.4238 146.982 79.4004 147.193C79.377 147.4 79.3652 147.615 79.3652 147.838C79.498 147.639 79.6641 147.459 79.8633 147.299C80.0664 147.135 80.2891 146.996 80.5312 146.883C80.7734 146.766 81.0293 146.676 81.2988 146.613C81.5723 146.551 81.8477 146.52 82.125 146.52C82.4297 146.52 82.7188 146.566 82.9922 146.66C83.2656 146.75 83.5059 146.895 83.7129 147.094C83.9199 147.293 84.084 147.553 84.2051 147.873C84.3262 148.189 84.3867 148.574 84.3867 149.027V153H81.8555V149.396C81.8555 149.154 81.8301 148.953 81.7793 148.793C81.7285 148.633 81.6582 148.506 81.5684 148.412C81.4785 148.318 81.3711 148.252 81.2461 148.213C81.125 148.174 80.9922 148.154 80.8477 148.154C80.6914 148.154 80.5371 148.182 80.3848 148.236C80.2324 148.287 80.0938 148.357 79.9688 148.447C79.8438 148.537 79.7363 148.643 79.6465 148.764C79.5566 148.885 79.498 149.014 79.4707 149.15V153H76.9395V146.678ZM88.582 153.17C88.1992 153.17 87.834 153.105 87.4863 152.977C87.1426 152.848 86.8398 152.648 86.5781 152.379C86.3203 152.105 86.1133 151.76 85.957 151.342C85.8047 150.924 85.7285 150.426 85.7285 149.848C85.7285 149.238 85.8066 148.723 85.9629 148.301C86.123 147.875 86.332 147.531 86.5898 147.27C86.8477 147.004 87.1426 146.812 87.4746 146.695C87.8066 146.578 88.1484 146.52 88.5 146.52C88.7227 146.52 88.9453 146.545 89.168 146.596C89.3906 146.646 89.5996 146.719 89.7949 146.812C89.9902 146.902 90.166 147.01 90.3223 147.135C90.4785 147.26 90.6016 147.396 90.6914 147.545V144H93.2227V153H90.6914V151.957C90.5859 152.148 90.457 152.32 90.3047 152.473C90.1523 152.621 89.9824 152.748 89.7949 152.854C89.6113 152.955 89.416 153.033 89.209 153.088C89.002 153.143 88.793 153.17 88.582 153.17ZM88.2598 149.854C88.2598 150.174 88.2949 150.441 88.3652 150.656C88.4355 150.871 88.5273 151.045 88.6406 151.178C88.7578 151.307 88.8887 151.4 89.0332 151.459C89.1816 151.514 89.332 151.541 89.4844 151.541C89.6367 151.541 89.7852 151.514 89.9297 151.459C90.0742 151.4 90.2031 151.307 90.3164 151.178C90.4297 151.045 90.5195 150.871 90.5859 150.656C90.6562 150.438 90.6914 150.168 90.6914 149.848C90.6914 149.531 90.6562 149.266 90.5859 149.051C90.5195 148.832 90.4297 148.656 90.3164 148.523C90.2031 148.391 90.0742 148.297 89.9297 148.242C89.7891 148.184 89.6426 148.154 89.4902 148.154C89.3379 148.154 89.1875 148.184 89.0391 148.242C88.8945 148.297 88.7637 148.391 88.6465 148.523C88.5293 148.656 88.4355 148.832 88.3652 149.051C88.2949 149.266 88.2598 149.533 88.2598 149.854ZM100.916 152.748C100.549 152.869 100.152 152.969 99.7266 153.047C99.3008 153.129 98.8574 153.17 98.3965 153.17C97.8926 153.17 97.4121 153.104 96.9551 152.971C96.498 152.838 96.0957 152.631 95.748 152.35C95.4004 152.068 95.123 151.713 94.916 151.283C94.7129 150.85 94.6113 150.334 94.6113 149.736C94.6113 149.396 94.6641 149.082 94.7695 148.793C94.875 148.5 95.0176 148.234 95.1973 147.996C95.3809 147.758 95.5938 147.547 95.8359 147.363C96.082 147.18 96.3438 147.025 96.6211 146.9C96.9023 146.775 97.1914 146.682 97.4883 146.619C97.7852 146.553 98.0762 146.52 98.3613 146.52C98.8105 146.52 99.207 146.57 99.5508 146.672C99.8945 146.77 100.18 146.902 100.406 147.07C100.637 147.238 100.811 147.434 100.928 147.656C101.045 147.879 101.104 148.115 101.104 148.365C101.104 148.67 101.051 148.93 100.945 149.145C100.844 149.359 100.705 149.541 100.529 149.689C100.357 149.834 100.156 149.949 99.9258 150.035C99.6992 150.117 99.459 150.182 99.2051 150.229C98.9512 150.271 98.6914 150.299 98.4258 150.311C98.1641 150.322 97.9141 150.328 97.6758 150.328C97.5938 150.328 97.5137 150.328 97.4355 150.328C97.3613 150.324 97.2871 150.322 97.2129 150.322C97.2441 150.545 97.3047 150.732 97.3945 150.885C97.4883 151.037 97.6035 151.162 97.7402 151.26C97.8809 151.354 98.041 151.422 98.2207 151.465C98.4043 151.504 98.5996 151.523 98.8066 151.523C98.9629 151.523 99.1289 151.512 99.3047 151.488C99.4844 151.465 99.6641 151.434 99.8438 151.395C100.027 151.352 100.209 151.305 100.389 151.254C100.572 151.199 100.748 151.143 100.916 151.084V152.748ZM97.1602 149.42C97.2539 149.416 97.373 149.41 97.5176 149.402C97.666 149.395 97.8223 149.381 97.9863 149.361C98.1504 149.342 98.3145 149.314 98.4785 149.279C98.6426 149.244 98.791 149.199 98.9238 149.145C99.0566 149.09 99.1641 149.021 99.2461 148.939C99.3281 148.857 99.3691 148.758 99.3691 148.641C99.3691 148.441 99.2891 148.283 99.1289 148.166C98.9727 148.045 98.7539 147.984 98.4727 147.984C98.3438 147.984 98.2051 148.004 98.0566 148.043C97.9082 148.078 97.7695 148.148 97.6406 148.254C97.5117 148.359 97.4023 148.506 97.3125 148.693C97.2227 148.881 97.1719 149.123 97.1602 149.42ZM109.277 153.17C108.895 153.17 108.529 153.105 108.182 152.977C107.838 152.848 107.535 152.648 107.273 152.379C107.016 152.105 106.809 151.76 106.652 151.342C106.5 150.924 106.424 150.426 106.424 149.848C106.424 149.238 106.502 148.723 106.658 148.301C106.818 147.875 107.027 147.531 107.285 147.27C107.543 147.004 107.838 146.812 108.17 146.695C108.502 146.578 108.844 146.52 109.195 146.52C109.418 146.52 109.641 146.545 109.863 146.596C110.086 146.646 110.295 146.719 110.49 146.812C110.686 146.902 110.861 147.01 111.018 147.135C111.174 147.26 111.297 147.396 111.387 147.545V144H113.918V153H111.387V151.957C111.281 152.148 111.152 152.32 111 152.473C110.848 152.621 110.678 152.748 110.49 152.854C110.307 152.955 110.111 153.033 109.904 153.088C109.697 153.143 109.488 153.17 109.277 153.17ZM108.955 149.854C108.955 150.174 108.99 150.441 109.061 150.656C109.131 150.871 109.223 151.045 109.336 151.178C109.453 151.307 109.584 151.4 109.729 151.459C109.877 151.514 110.027 151.541 110.18 151.541C110.332 151.541 110.48 151.514 110.625 151.459C110.77 151.4 110.898 151.307 111.012 151.178C111.125 151.045 111.215 150.871 111.281 150.656C111.352 150.438 111.387 150.168 111.387 149.848C111.387 149.531 111.352 149.266 111.281 149.051C111.215 148.832 111.125 148.656 111.012 148.523C110.898 148.391 110.77 148.297 110.625 148.242C110.484 148.184 110.338 148.154 110.186 148.154C110.033 148.154 109.883 148.184 109.734 148.242C109.59 148.297 109.459 148.391 109.342 148.523C109.225 148.656 109.131 148.832 109.061 149.051C108.99 149.266 108.955 149.533 108.955 149.854ZM117.211 146.438C117.211 146.305 117.186 146.191 117.135 146.098C117.084 146.004 117 145.928 116.883 145.869C116.766 145.807 116.611 145.762 116.42 145.734C116.229 145.703 115.992 145.688 115.711 145.688V144.562H116.273C116.566 144.562 116.857 144.598 117.146 144.668C117.436 144.738 117.695 144.865 117.926 145.049C118.16 145.229 118.35 145.479 118.494 145.799C118.639 146.115 118.711 146.52 118.711 147.012C118.711 147.617 118.576 148.08 118.307 148.4C118.037 148.717 117.635 148.875 117.1 148.875C116.834 148.875 116.602 148.834 116.402 148.752C116.207 148.666 116.043 148.557 115.91 148.424C115.781 148.287 115.684 148.135 115.617 147.967C115.555 147.799 115.523 147.633 115.523 147.469C115.523 147.309 115.551 147.154 115.605 147.006C115.66 146.857 115.736 146.729 115.834 146.619C115.932 146.506 116.045 146.416 116.174 146.35C116.307 146.283 116.449 146.25 116.602 146.25C116.801 146.25 117.004 146.312 117.211 146.438ZM121.658 153.17C121.408 153.17 121.168 153.135 120.938 153.064C120.711 152.994 120.51 152.887 120.334 152.742C120.158 152.598 120.018 152.416 119.912 152.197C119.811 151.975 119.76 151.713 119.76 151.412C119.76 151.123 119.807 150.873 119.9 150.662C119.994 150.447 120.119 150.264 120.275 150.111C120.436 149.959 120.621 149.834 120.832 149.736C121.047 149.635 121.273 149.557 121.512 149.502C121.75 149.443 121.994 149.404 122.244 149.385C122.498 149.361 122.744 149.35 122.982 149.35C123.146 149.35 123.305 149.354 123.457 149.361C123.609 149.369 123.752 149.379 123.885 149.391C123.877 149.145 123.83 148.941 123.744 148.781C123.658 148.617 123.545 148.488 123.404 148.395C123.264 148.297 123.1 148.229 122.912 148.189C122.725 148.15 122.527 148.131 122.32 148.131C122.129 148.131 121.932 148.145 121.729 148.172C121.529 148.195 121.334 148.227 121.143 148.266C120.951 148.301 120.768 148.34 120.592 148.383C120.42 148.426 120.268 148.465 120.135 148.5V146.859C120.326 146.816 120.531 146.775 120.75 146.736C120.973 146.693 121.203 146.656 121.441 146.625C121.68 146.594 121.922 146.568 122.168 146.549C122.418 146.529 122.664 146.52 122.906 146.52C123.207 146.52 123.502 146.539 123.791 146.578C124.084 146.613 124.359 146.674 124.617 146.76C124.879 146.846 125.119 146.961 125.338 147.105C125.561 147.25 125.75 147.43 125.906 147.645C126.066 147.855 126.191 148.105 126.281 148.395C126.371 148.684 126.416 149.018 126.416 149.396V153H124.002V151.951C123.908 152.143 123.777 152.314 123.609 152.467C123.441 152.615 123.252 152.742 123.041 152.848C122.83 152.953 122.605 153.033 122.367 153.088C122.129 153.143 121.893 153.17 121.658 153.17ZM122.648 151.793C122.758 151.793 122.883 151.764 123.023 151.705C123.168 151.643 123.303 151.549 123.428 151.424C123.557 151.299 123.664 151.141 123.75 150.949C123.84 150.758 123.885 150.529 123.885 150.264H123.691C123.504 150.264 123.311 150.283 123.111 150.322C122.916 150.361 122.736 150.42 122.572 150.498C122.408 150.576 122.273 150.672 122.168 150.785C122.062 150.898 122.01 151.029 122.01 151.178C122.01 151.295 122.029 151.393 122.068 151.471C122.107 151.549 122.156 151.613 122.215 151.664C122.277 151.711 122.346 151.744 122.42 151.764C122.498 151.783 122.574 151.793 122.648 151.793ZM127.371 146.678H130.213L131.309 151.412L132.533 146.678H134.684L132.662 153H129.457L127.371 146.678ZM141.627 152.748C141.26 152.869 140.863 152.969 140.438 153.047C140.012 153.129 139.568 153.17 139.107 153.17C138.604 153.17 138.123 153.104 137.666 152.971C137.209 152.838 136.807 152.631 136.459 152.35C136.111 152.068 135.834 151.713 135.627 151.283C135.424 150.85 135.322 150.334 135.322 149.736C135.322 149.396 135.375 149.082 135.48 148.793C135.586 148.5 135.729 148.234 135.908 147.996C136.092 147.758 136.305 147.547 136.547 147.363C136.793 147.18 137.055 147.025 137.332 146.9C137.613 146.775 137.902 146.682 138.199 146.619C138.496 146.553 138.787 146.52 139.072 146.52C139.521 146.52 139.918 146.57 140.262 146.672C140.605 146.77 140.891 146.902 141.117 147.07C141.348 147.238 141.521 147.434 141.639 147.656C141.756 147.879 141.814 148.115 141.814 148.365C141.814 148.67 141.762 148.93 141.656 149.145C141.555 149.359 141.416 149.541 141.24 149.689C141.068 149.834 140.867 149.949 140.637 150.035C140.41 150.117 140.17 150.182 139.916 150.229C139.662 150.271 139.402 150.299 139.137 150.311C138.875 150.322 138.625 150.328 138.387 150.328C138.305 150.328 138.225 150.328 138.146 150.328C138.072 150.324 137.998 150.322 137.924 150.322C137.955 150.545 138.016 150.732 138.105 150.885C138.199 151.037 138.314 151.162 138.451 151.26C138.592 151.354 138.752 151.422 138.932 151.465C139.115 151.504 139.311 151.523 139.518 151.523C139.674 151.523 139.84 151.512 140.016 151.488C140.195 151.465 140.375 151.434 140.555 151.395C140.738 151.352 140.92 151.305 141.1 151.254C141.283 151.199 141.459 151.143 141.627 151.084V152.748ZM137.871 149.42C137.965 149.416 138.084 149.41 138.229 149.402C138.377 149.395 138.533 149.381 138.697 149.361C138.861 149.342 139.025 149.314 139.189 149.279C139.354 149.244 139.502 149.199 139.635 149.145C139.768 149.09 139.875 149.021 139.957 148.939C140.039 148.857 140.08 148.758 140.08 148.641C140.08 148.441 140 148.283 139.84 148.166C139.684 148.045 139.465 147.984 139.184 147.984C139.055 147.984 138.916 148.004 138.768 148.043C138.619 148.078 138.48 148.148 138.352 148.254C138.223 148.359 138.113 148.506 138.023 148.693C137.934 148.881 137.883 149.123 137.871 149.42ZM143.373 146.678H145.904C145.881 146.811 145.857 146.982 145.834 147.193C145.811 147.4 145.799 147.615 145.799 147.838C145.932 147.639 146.098 147.459 146.297 147.299C146.5 147.135 146.723 146.996 146.965 146.883C147.207 146.766 147.463 146.676 147.732 146.613C148.006 146.551 148.281 146.52 148.559 146.52C148.863 146.52 149.152 146.566 149.426 146.66C149.699 146.75 149.939 146.895 150.146 147.094C150.354 147.293 150.518 147.553 150.639 147.873C150.76 148.189 150.82 148.574 150.82 149.027V153H148.289V149.396C148.289 149.154 148.264 148.953 148.213 148.793C148.162 148.633 148.092 148.506 148.002 148.412C147.912 148.318 147.805 148.252 147.68 148.213C147.559 148.174 147.426 148.154 147.281 148.154C147.125 148.154 146.971 148.182 146.818 148.236C146.666 148.287 146.527 148.357 146.402 148.447C146.277 148.537 146.17 148.643 146.08 148.764C145.99 148.885 145.932 149.014 145.904 149.15V153H143.373V146.678ZM155.73 153.17C155.367 153.17 155.02 153.125 154.688 153.035C154.355 152.949 154.062 152.803 153.809 152.596C153.559 152.385 153.357 152.107 153.205 151.764C153.057 151.416 152.982 150.984 152.982 150.469V148.131H151.816V147.75L154.576 144.75H155.514V146.678H157.389C157.342 146.912 157.299 147.148 157.26 147.387C157.225 147.625 157.205 147.873 157.201 148.131H155.514V150.445C155.514 150.586 155.523 150.723 155.543 150.855C155.566 150.984 155.611 151.1 155.678 151.201C155.744 151.299 155.84 151.379 155.965 151.441C156.09 151.5 156.256 151.529 156.463 151.529C156.596 151.529 156.742 151.518 156.902 151.494C157.062 151.467 157.244 151.418 157.447 151.348L157.588 152.865C157.342 152.955 157.059 153.027 156.738 153.082C156.422 153.141 156.086 153.17 155.73 153.17ZM165.82 153H163.295L163.348 152.596C163.363 152.471 163.377 152.33 163.389 152.174C163.4 152.018 163.41 151.855 163.418 151.688C163.301 151.918 163.152 152.125 162.973 152.309C162.797 152.488 162.602 152.643 162.387 152.771C162.172 152.9 161.943 152.998 161.701 153.064C161.459 153.135 161.215 153.17 160.969 153.17C160.664 153.17 160.375 153.119 160.102 153.018C159.828 152.92 159.586 152.764 159.375 152.549C159.168 152.33 159.002 152.051 158.877 151.711C158.756 151.367 158.695 150.953 158.695 150.469V146.678H161.227V150.234C161.227 150.477 161.248 150.68 161.291 150.844C161.338 151.008 161.4 151.141 161.479 151.242C161.557 151.344 161.646 151.418 161.748 151.465C161.85 151.508 161.957 151.529 162.07 151.529C162.203 151.529 162.336 151.502 162.469 151.447C162.605 151.393 162.729 151.318 162.838 151.225C162.951 151.131 163.047 151.021 163.125 150.896C163.207 150.768 163.262 150.631 163.289 150.486V146.678H165.82V153ZM167.654 146.678H170.062C170.055 146.779 170.049 146.893 170.045 147.018C170.041 147.139 170.039 147.268 170.039 147.404C170.039 147.537 170.039 147.672 170.039 147.809C170.039 147.945 170.039 148.076 170.039 148.201C170.117 148.01 170.219 147.814 170.344 147.615C170.469 147.412 170.615 147.23 170.783 147.07C170.955 146.91 171.148 146.779 171.363 146.678C171.582 146.572 171.826 146.52 172.096 146.52C172.146 146.52 172.201 146.523 172.26 146.531C172.322 146.535 172.383 146.543 172.441 146.555C172.5 146.566 172.555 146.582 172.605 146.602C172.66 146.617 172.705 146.637 172.74 146.66L172.535 149.074C172.359 149.008 172.174 148.959 171.979 148.928C171.783 148.893 171.613 148.875 171.469 148.875C171.27 148.875 171.094 148.9 170.941 148.951C170.793 148.998 170.666 149.061 170.561 149.139C170.455 149.217 170.371 149.303 170.309 149.396C170.25 149.49 170.209 149.582 170.186 149.672V153H167.654V146.678ZM179.666 152.748C179.299 152.869 178.902 152.969 178.477 153.047C178.051 153.129 177.607 153.17 177.146 153.17C176.643 153.17 176.162 153.104 175.705 152.971C175.248 152.838 174.846 152.631 174.498 152.35C174.15 152.068 173.873 151.713 173.666 151.283C173.463 150.85 173.361 150.334 173.361 149.736C173.361 149.396 173.414 149.082 173.52 148.793C173.625 148.5 173.768 148.234 173.947 147.996C174.131 147.758 174.344 147.547 174.586 147.363C174.832 147.18 175.094 147.025 175.371 146.9C175.652 146.775 175.941 146.682 176.238 146.619C176.535 146.553 176.826 146.52 177.111 146.52C177.561 146.52 177.957 146.57 178.301 146.672C178.645 146.77 178.93 146.902 179.156 147.07C179.387 147.238 179.561 147.434 179.678 147.656C179.795 147.879 179.854 148.115 179.854 148.365C179.854 148.67 179.801 148.93 179.695 149.145C179.594 149.359 179.455 149.541 179.279 149.689C179.107 149.834 178.906 149.949 178.676 150.035C178.449 150.117 178.209 150.182 177.955 150.229C177.701 150.271 177.441 150.299 177.176 150.311C176.914 150.322 176.664 150.328 176.426 150.328C176.344 150.328 176.264 150.328 176.186 150.328C176.111 150.324 176.037 150.322 175.963 150.322C175.994 150.545 176.055 150.732 176.145 150.885C176.238 151.037 176.354 151.162 176.49 151.26C176.631 151.354 176.791 151.422 176.971 151.465C177.154 151.504 177.35 151.523 177.557 151.523C177.713 151.523 177.879 151.512 178.055 151.488C178.234 151.465 178.414 151.434 178.594 151.395C178.777 151.352 178.959 151.305 179.139 151.254C179.322 151.199 179.498 151.143 179.666 151.084V152.748ZM175.91 149.42C176.004 149.416 176.123 149.41 176.268 149.402C176.416 149.395 176.572 149.381 176.736 149.361C176.9 149.342 177.064 149.314 177.229 149.279C177.393 149.244 177.541 149.199 177.674 149.145C177.807 149.09 177.914 149.021 177.996 148.939C178.078 148.857 178.119 148.758 178.119 148.641C178.119 148.441 178.039 148.283 177.879 148.166C177.723 148.045 177.504 147.984 177.223 147.984C177.094 147.984 176.955 148.004 176.807 148.043C176.658 148.078 176.52 148.148 176.391 148.254C176.262 148.359 176.152 148.506 176.062 148.693C175.973 148.881 175.922 149.123 175.91 149.42ZM186.334 148.57C185.943 148.391 185.561 148.252 185.186 148.154C184.814 148.053 184.488 148.002 184.207 148.002C183.91 148.002 183.699 148.031 183.574 148.09C183.449 148.145 183.387 148.242 183.387 148.383C183.387 148.508 183.479 148.607 183.662 148.682C183.846 148.752 184.115 148.834 184.471 148.928C184.826 149.021 185.145 149.125 185.426 149.238C185.707 149.352 185.945 149.492 186.141 149.66C186.34 149.828 186.49 150.029 186.592 150.264C186.697 150.498 186.75 150.785 186.75 151.125C186.75 151.43 186.691 151.709 186.574 151.963C186.457 152.213 186.279 152.428 186.041 152.607C185.803 152.787 185.502 152.926 185.139 153.023C184.775 153.121 184.348 153.17 183.855 153.17C183.418 153.17 182.979 153.137 182.537 153.07C182.096 153.008 181.65 152.895 181.201 152.73V150.92C181.604 151.096 182.008 151.236 182.414 151.342C182.82 151.447 183.207 151.5 183.574 151.5C184.234 151.5 184.564 151.363 184.564 151.09C184.564 151.043 184.549 151 184.518 150.961C184.486 150.922 184.428 150.885 184.342 150.85C184.26 150.811 184.143 150.771 183.99 150.732C183.842 150.689 183.65 150.639 183.416 150.58C183.092 150.502 182.785 150.402 182.496 150.281C182.211 150.156 181.961 150.006 181.746 149.83C181.535 149.65 181.367 149.441 181.242 149.203C181.121 148.965 181.061 148.693 181.061 148.389C181.061 148.115 181.117 147.863 181.23 147.633C181.348 147.402 181.521 147.205 181.752 147.041C181.986 146.877 182.275 146.75 182.619 146.66C182.967 146.566 183.369 146.52 183.826 146.52C184.092 146.52 184.346 146.531 184.588 146.555C184.834 146.578 185.066 146.607 185.285 146.643C185.504 146.674 185.707 146.709 185.895 146.748C186.086 146.783 186.262 146.816 186.422 146.848L186.334 148.57Z" fill="#FF998B"/>
</svg>
